<svg xmlns="http://www.w3.org/2000/svg" xmlns:xlink="http://www.w3.org/1999/xlink" width="500" zoomAndPan="magnify" viewBox="0 0 375 374.999991" height="500" preserveAspectRatio="xMidYMid meet" version="1.0"><defs><clipPath id="id1"><path d="M 83.5625 51.132812 L 307.644531 51.132812 L 307.644531 311.222656 L 83.5625 311.222656 Z M 83.5625 51.132812 " clip-rule="nonzero"/></clipPath><clipPath id="id2"><path d="M 83.5625 73 L 307.644531 73 L 307.644531 311.222656 L 83.5625 311.222656 Z M 83.5625 73 " clip-rule="nonzero"/></clipPath><clipPath id="id3"><path d="M 83.394531 66 L 189 66 L 189 273 L 83.394531 273 Z M 83.394531 66 " clip-rule="nonzero"/></clipPath></defs><g clip-path="url(#id1)"><path fill="#ffbd59" d="M 185.285156 243.722656 C 185.023438 246.582031 183.136719 248.828125 182.371094 251.496094 C 182.210938 252.070312 181.714844 252.261719 181.207031 252.511719 C 179.570312 253.320312 177.765625 252.976562 176.074219 253.367188 C 175.402344 253.519531 175.046875 253.136719 175.253906 252.402344 C 175.546875 251.363281 175.828125 250.320312 176.128906 249.28125 C 176.234375 248.929688 176.332031 248.519531 176.808594 248.5 C 177.261719 248.484375 177.4375 248.847656 177.628906 249.167969 C 177.984375 249.777344 178.207031 250.472656 178.769531 250.941406 C 179.304688 251.390625 179.84375 252.027344 180.601562 251.808594 C 181.40625 251.574219 181.386719 250.714844 181.527344 250.035156 C 181.675781 249.300781 181.527344 248.625 181.0625 248.035156 C 180.398438 247.183594 179.777344 246.289062 179.027344 245.519531 C 178.347656 244.824219 178.179688 244.242188 178.6875 243.339844 C 179.628906 241.675781 180.410156 239.925781 181.09375 238.132812 C 181.140625 238.015625 181.171875 237.910156 181.191406 237.804688 C 181.300781 237.824219 181.410156 237.851562 181.515625 237.855469 C 182.667969 237.914062 183.527344 237.226562 183.863281 235.871094 C 184.15625 234.675781 184.367188 233.457031 184.621094 232.226562 C 185.007812 232.304688 185.03125 232.476562 185.054688 232.640625 C 185.492188 235.597656 185.414062 238.582031 185.433594 241.558594 C 185.4375 242.0625 185.582031 242.5625 185.816406 243.019531 C 185.511719 243.140625 185.316406 243.378906 185.285156 243.722656 Z M 180.007812 228.808594 C 180.003906 228.808594 180 228.8125 179.996094 228.8125 C 180 228.808594 180.003906 228.808594 180.007812 228.808594 Z M 306.394531 288.179688 C 304.515625 283.28125 303.382812 278.164062 301.808594 273.179688 C 299.078125 264.515625 295.625 256.113281 291.566406 247.980469 C 289.476562 243.78125 287.191406 239.679688 284.292969 235.957031 C 284.027344 235.617188 283.464844 235.316406 283.695312 234.828125 C 283.90625 234.386719 284.5 234.449219 284.945312 234.429688 C 285.816406 234.402344 286.691406 234.394531 287.546875 234.214844 C 287.550781 234.21875 287.558594 234.21875 287.5625 234.21875 C 287.5625 234.21875 287.558594 234.214844 287.554688 234.214844 C 288.03125 234.113281 288.496094 233.960938 288.953125 233.714844 C 288.917969 233.714844 288.882812 233.714844 288.847656 233.714844 C 291.566406 233.234375 291.996094 231.292969 292.023438 229.886719 C 292.035156 229.035156 291.925781 228.125 291.730469 227.183594 C 290.921875 223.3125 288.617188 218.929688 287.21875 215.773438 C 276.980469 192.660156 259.535156 170.828125 242.957031 151.910156 C 233.597656 141.226562 223.546875 131.148438 212.890625 121.757812 C 207.5625 117.066406 202.082031 112.542969 196.460938 108.203125 C 193.496094 105.917969 190.476562 103.722656 187.464844 101.5 C 187.171875 101.285156 185.578125 100.488281 184.464844 99.703125 C 184.339844 99.5 184.308594 99.273438 184.484375 99.011719 C 184.761719 98.601562 185.164062 98.839844 185.496094 98.996094 C 186.058594 99.257812 186.597656 99.585938 187.167969 99.828125 C 188.195312 100.261719 189.207031 100.730469 190.394531 100.605469 C 192.40625 100.390625 193.179688 99.125 192.386719 97.335938 C 191.65625 95.6875 190.496094 94.332031 189.496094 92.859375 C 186.707031 88.742188 183.929688 84.621094 180.890625 80.675781 C 177.222656 75.902344 172.871094 71.78125 168.492188 67.722656 C 163.914062 63.488281 158.722656 60.015625 153.261719 56.960938 C 148.785156 54.453125 144.074219 52.550781 139.125 51.21875 C 138.402344 51.023438 137.730469 51.152344 137.363281 51.835938 C 135.894531 51.632812 134.375 51.539062 132.792969 51.59375 C 125.492188 51.839844 117.917969 53.707031 111.457031 56.847656 C 106.523438 59.25 103.039062 62.03125 100.808594 65.351562 C 98.917969 68.160156 97.945312 71.273438 97.351562 74.476562 C 97.285156 74.515625 97.214844 74.550781 97.148438 74.59375 C 92.125 77.628906 87.910156 81.585938 84.15625 86.058594 C 83.875 86.394531 83.84375 86.671875 84.324219 86.789062 C 84.546875 86.84375 84.753906 86.9375 84.953125 87.050781 C 84.414062 87.039062 83.75 86.953125 83.589844 87.640625 C 83.421875 88.347656 84.140625 88.621094 84.613281 88.886719 C 85.929688 89.628906 87.347656 90.082031 88.875 90.105469 C 89.28125 90.109375 89.691406 90.113281 90.097656 90.121094 C 90.832031 90.953125 91.511719 91.835938 92.160156 92.742188 C 92.992188 93.910156 93.898438 94.933594 94.902344 95.773438 C 94.785156 96.875 94.667969 97.976562 94.566406 99.078125 C 94.148438 103.53125 94.507812 107.996094 94.914062 112.335938 C 94.839844 115.171875 94.769531 118.007812 94.683594 120.84375 C 94.65625 121.757812 94.609375 122.675781 94.5 123.578125 C 94.15625 126.5 94.242188 129.441406 93.761719 132.367188 C 93.292969 135.195312 94.507812 137.929688 94.824219 140.726562 C 95.042969 142.660156 95.410156 144.585938 95.769531 146.503906 C 95.996094 147.703125 96.589844 148.8125 97.785156 149.15625 C 99.039062 149.515625 99.710938 148.476562 100.3125 147.542969 C 100.375 147.445312 100.496094 147.390625 100.640625 147.269531 C 100.976562 147.699219 100.898438 148.089844 100.890625 148.449219 C 100.769531 153.054688 102.035156 157.382812 103.5625 161.644531 C 104.628906 164.613281 106.023438 167.449219 107.03125 170.445312 C 107.421875 171.613281 108.171875 172.644531 109.195312 173.4375 C 110.429688 174.386719 112.042969 174.117188 112.84375 172.777344 C 112.992188 172.519531 112.949219 172.082031 113.535156 172.085938 C 113.890625 173.285156 114.257812 174.507812 114.617188 175.730469 C 115.398438 178.359375 116.042969 181.019531 116.964844 183.605469 C 118.761719 188.628906 122.78125 191.925781 126.300781 195.605469 C 127.082031 196.425781 128.164062 196.625 129.308594 196.464844 C 130.464844 196.304688 130.285156 195.226562 130.648438 194.375 C 130.910156 194.738281 131.113281 194.949219 131.230469 195.203125 C 132.597656 198.152344 134.488281 200.8125 135.96875 203.695312 C 137.847656 207.355469 140.765625 210.023438 143.960938 212.453125 C 145.09375 213.308594 145.757812 213.085938 146.4375 211.835938 C 146.796875 211.171875 146.800781 210.457031 146.847656 209.667969 C 149.65625 211.769531 152.289062 213.863281 155.042969 215.785156 C 162.675781 221.105469 170.6875 225.609375 179.210938 229.042969 C 178.980469 229.203125 178.824219 229.453125 178.785156 229.875 C 178.628906 231.699219 178.441406 233.523438 178.617188 235.355469 C 178.648438 235.675781 178.789062 236 178.988281 236.308594 C 178.707031 236.449219 178.453125 236.765625 178.144531 237.3125 C 177.402344 238.609375 176.722656 239.949219 176.085938 241.300781 C 175.570312 242.386719 174.84375 243.046875 173.625 243.359375 C 168.792969 244.585938 163.976562 245.886719 159.164062 247.207031 C 155.878906 248.109375 152.550781 248.878906 149.398438 250.210938 C 147.78125 250.894531 147.527344 251.304688 147.671875 253.074219 C 147.71875 253.609375 147.824219 254.144531 147.976562 254.660156 C 148.203125 255.449219 148.75 256.113281 149.570312 255.945312 C 150.433594 255.765625 150.394531 254.894531 150.203125 254.1875 C 149.945312 253.242188 150.417969 252.894531 151.226562 252.714844 C 152.28125 252.476562 153.332031 252.222656 154.378906 251.953125 C 159.488281 250.648438 164.59375 249.335938 169.703125 248.027344 C 170.90625 247.722656 171.261719 247.929688 170.949219 248.816406 C 170.449219 250.238281 170.152344 251.703125 169.832031 253.164062 C 169.722656 253.675781 169.523438 254.136719 168.957031 254.265625 C 165.960938 254.941406 162.992188 255.757812 159.878906 255.6875 C 158.6875 255.621094 157.605469 256.117188 156.472656 256.355469 C 152.054688 257.285156 151.183594 260.132812 150.445312 263.792969 C 150.316406 264.4375 150.714844 264.832031 151.242188 265.042969 C 151.835938 265.289062 152.1875 264.871094 152.433594 264.414062 C 152.648438 264.015625 152.773438 263.570312 152.972656 263.15625 C 153.585938 261.890625 154.078125 260.484375 155.648438 260.074219 C 156.964844 259.730469 158.253906 259.351562 159.675781 259.398438 C 160.984375 259.4375 162.320312 259.402344 163.644531 259.128906 C 166.492188 258.546875 169.367188 258.074219 172.234375 257.601562 C 172.625 257.539062 173.265625 257.363281 173.367188 258.007812 C 173.449219 258.5 172.917969 258.675781 172.539062 258.804688 C 170.050781 259.652344 167.902344 261.167969 165.59375 262.371094 C 164.460938 262.960938 163.421875 263.710938 162.910156 265.03125 C 162.289062 266.613281 161.542969 268.148438 160.828125 269.695312 C 160.097656 271.269531 160.367188 272.023438 161.921875 272.808594 C 162.636719 273.167969 163.144531 272.992188 163.445312 272.300781 C 164.304688 270.320312 165.191406 268.347656 165.941406 266.324219 C 166.332031 265.273438 166.949219 264.625 167.90625 264.058594 C 171.195312 262.097656 174.683594 260.546875 178.132812 258.914062 C 178.4375 258.769531 178.75 258.527344 179.0625 258.761719 C 179.453125 259.054688 179.1875 259.441406 179.078125 259.785156 C 178.285156 262.238281 177.511719 264.699219 176.695312 267.144531 C 176.398438 268.027344 176.277344 268.925781 176.277344 269.839844 C 176.277344 270.777344 177.585938 272.191406 178.449219 272.109375 C 179.527344 272.003906 179.582031 271.035156 179.726562 270.234375 C 180.148438 267.851562 180.953125 265.570312 181.722656 263.292969 C 182.753906 260.246094 183.007812 256.980469 184.949219 254.167969 C 186.296875 252.226562 186.976562 249.8125 187.910156 247.589844 C 188.214844 246.867188 188.425781 246.097656 188.585938 245.328125 C 188.609375 245.207031 188.597656 245.074219 188.558594 244.9375 C 190.5625 245.414062 191.09375 245.097656 192.050781 243.40625 C 193.445312 240.945312 194.75 238.425781 196.335938 236.09375 C 196.722656 235.523438 197.113281 234.953125 197.503906 234.386719 C 197.484375 234.410156 197.464844 234.4375 197.449219 234.464844 C 201.144531 235.164062 204.871094 235.628906 208.625 235.863281 C 214.308594 236.222656 224.753906 234.847656 224.777344 234.390625 C 225.105469 234.382812 225.449219 234.390625 225.785156 234.390625 C 225.710938 234.660156 225.898438 234.855469 226.085938 234.972656 C 233.261719 239.371094 239.960938 247.347656 244.988281 254 C 253.273438 264.964844 258.628906 277.726562 262.457031 290.855469 C 263.480469 294.367188 264.316406 297.929688 264.925781 301.527344 C 265.28125 303.632812 266.371094 305.625 265.976562 307.867188 C 265.890625 308.359375 266.285156 308.828125 266.761719 309.050781 C 267.308594 309.304688 267.601562 308.886719 267.875 308.507812 C 269.152344 306.730469 269.953125 304.773438 270.183594 302.570312 C 270.34375 301.007812 270.761719 299.476562 270.75 297.878906 C 270.746094 297.285156 271.195312 296.621094 271.800781 296.503906 C 272.390625 296.386719 272.480469 297.082031 272.695312 297.527344 C 274.640625 301.511719 276.125 305.710938 278.269531 309.597656 C 278.636719 310.261719 278.914062 311.363281 279.773438 311.210938 C 280.640625 311.054688 280.890625 309.972656 281.148438 309.132812 C 281.183594 309.015625 281.1875 308.886719 281.21875 308.765625 C 281.613281 307.050781 281.679688 305.304688 281.671875 303.554688 C 281.648438 298.328125 281.84375 293.09375 281.613281 287.835938 C 282.679688 289.128906 282.96875 290.726562 283.519531 292.214844 C 284.921875 296 286.109375 299.828125 286.5625 303.878906 C 286.761719 305.675781 287.277344 307.460938 288.113281 309.117188 C 288.519531 309.917969 289.019531 309.875 289.558594 309.300781 C 290.28125 308.527344 290.667969 307.558594 291.050781 306.597656 C 292.433594 303.121094 292.792969 299.453125 292.960938 295.765625 C 293.09375 292.984375 293.25 290.195312 292.707031 287.429688 C 292.648438 287.117188 292.566406 286.726562 292.976562 286.566406 C 293.269531 286.460938 293.398438 286.699219 293.515625 286.941406 C 294.820312 289.609375 296.140625 292.269531 297.4375 294.941406 C 298.367188 296.855469 299.394531 298.703125 301.046875 300.101562 C 301.992188 300.902344 302.683594 300.734375 303.140625 299.578125 C 303.835938 297.8125 303.746094 296 303.378906 294.179688 C 303.300781 293.773438 303.144531 293.382812 303.066406 292.976562 C 303 292.621094 302.875 292.167969 303.320312 291.984375 C 303.695312 291.832031 303.886719 292.207031 304.113281 292.453125 C 304.476562 292.847656 304.855469 293.234375 305.253906 293.601562 C 305.632812 293.949219 305.972656 294.585938 306.589844 294.214844 C 307.183594 293.863281 307.539062 293.355469 307.644531 292.527344 C 307.859375 290.847656 306.925781 289.578125 306.394531 288.179688 " fill-opacity="1" fill-rule="nonzero"/></g><path fill="#ffbd59" d="M 287.5625 234.21875 C 287.554688 234.21875 287.464844 234.183594 287.144531 234.203125 C 285.175781 234.296875 282.890625 234.367188 280.671875 233.976562 C 277.332031 233.390625 273.15625 232.207031 270.484375 228.191406 C 269.859375 227.25 268.753906 226.273438 267.042969 226.953125 C 265.25 227.671875 263.230469 228.070312 261.492188 228.367188 C 260.671875 228.507812 259.855469 228.789062 258.988281 229.089844 L 258.398438 229.292969 C 257.453125 229.613281 256.480469 229.785156 255.832031 229.875 C 255.414062 229.933594 254.984375 230.066406 254.53125 230.210938 C 253.769531 230.453125 252.90625 230.722656 251.917969 230.679688 C 251.316406 230.640625 250.59375 230.914062 249.890625 231.167969 C 249.726562 231.226562 249.566406 231.285156 249.40625 231.339844 C 248.710938 231.574219 248.035156 231.675781 247.378906 231.773438 C 246.722656 231.871094 246.101562 231.960938 245.550781 232.1875 C 244.71875 232.527344 243.738281 232.652344 243.058594 232.695312 C 241.800781 232.777344 240.554688 233.136719 239.347656 233.488281 C 238.492188 233.738281 237.65625 233.792969 236.847656 233.84375 C 235.90625 233.902344 235.015625 233.960938 234.273438 234.34375 C 233.949219 234.507812 233.632812 234.5625 233.328125 234.511719 C 232.375 234.351562 231.394531 234.558594 230.355469 234.78125 C 229.417969 234.984375 227.53125 234.425781 226.472656 234.390625 C 225.890625 234.375 225.332031 234.378906 224.777344 234.390625 C 224.777344 234.390625 224.78125 234.390625 224.78125 234.390625 C 224.78125 233.804688 222.90625 233.273438 222.519531 233.257812 C 219.488281 233.15625 219.421875 233.078125 216.390625 232.964844 C 211.472656 232.78125 206.636719 231.96875 201.847656 231.011719 C 201.246094 230.890625 200.648438 230.761719 200.046875 230.625 C 198.828125 232.457031 197.574219 234.273438 196.335938 236.09375 C 194.75 238.425781 193.445312 240.945312 192.050781 243.40625 C 190.996094 245.261719 190.464844 245.464844 187.925781 244.773438 C 186.511719 244.390625 185.445312 242.972656 185.433594 241.558594 C 185.414062 238.582031 185.492188 235.597656 185.054688 232.640625 C 185.03125 232.476562 185.007812 232.304688 184.621094 232.226562 C 184.367188 233.457031 184.15625 234.675781 183.863281 235.871094 C 183.527344 237.226562 182.667969 237.914062 181.515625 237.855469 C 180.210938 237.789062 178.730469 236.535156 178.617188 235.355469 C 178.441406 233.523438 178.628906 231.699219 178.785156 229.875 C 178.867188 228.929688 179.554688 228.792969 180.3125 228.800781 C 183.316406 228.824219 184.113281 228.167969 185.121094 225.675781 C 177.28125 222.257812 170.113281 217.742188 163.738281 211.933594 C 156.511719 205.359375 150.546875 197.75 145.777344 189.230469 C 138.667969 176.535156 134.144531 162.875 130.921875 148.75 C 129.644531 143.152344 128.648438 137.503906 127.730469 131.84375 C 127.011719 127.410156 126.285156 122.980469 125.714844 118.527344 C 125.347656 115.621094 124.851562 112.789062 123.714844 110.066406 C 121.558594 104.925781 116.078125 101.78125 110.589844 102.671875 C 106.671875 103.308594 103.238281 105.164062 99.800781 107.023438 C 98.738281 107.59375 98.019531 108.832031 96.890625 108.996094 C 95.292969 109.21875 94.972656 110.089844 94.9375 111.367188 C 94.929688 111.691406 94.921875 112.011719 94.914062 112.335938 C 94.507812 107.996094 94.148438 103.53125 94.566406 99.078125 C 94.847656 96.09375 95.195312 93.078125 95.53125 90.160156 C 95.839844 87.457031 96.160156 84.664062 96.429688 81.910156 L 96.472656 81.449219 C 97.007812 75.910156 97.558594 70.179688 100.808594 65.351562 C 103.039062 62.03125 106.523438 59.25 111.457031 56.847656 C 117.917969 53.707031 125.492188 51.839844 132.792969 51.59375 C 142.128906 51.273438 149.441406 55.828125 155.867188 60.382812 C 161.195312 64.164062 167.195312 66.464844 172.578125 72.597656 C 175.417969 75.835938 177.847656 79.378906 180.203125 82.804688 C 181.414062 84.574219 182.671875 86.402344 183.960938 88.15625 L 184.308594 88.632812 C 184.816406 89.332031 185.296875 90 185.855469 90.542969 C 187.078125 91.726562 187.542969 93.074219 187.28125 94.667969 C 187.28125 94.683594 187.285156 94.71875 187.285156 94.757812 L 187.285156 94.859375 C 187.289062 95.046875 187.3125 95.25 187.335938 95.457031 C 187.40625 96.128906 187.5 96.96875 187.042969 97.667969 C 186.363281 98.710938 185.191406 98.285156 184.75 98.125 C 184.621094 98.078125 184.402344 98 184.324219 97.996094 C 181.160156 98.355469 186.886719 101.070312 187.464844 101.5 C 190.476562 103.722656 193.496094 105.917969 196.460938 108.203125 C 202.082031 112.542969 207.5625 117.066406 212.890625 121.757812 C 223.546875 131.148438 233.597656 141.226562 242.957031 151.910156 C 259.535156 170.828125 276.980469 192.660156 287.21875 215.773438 C 288.617188 218.929688 290.921875 223.3125 291.730469 227.183594 C 291.925781 228.125 292.035156 229.035156 292.023438 229.886719 C 291.992188 231.5 291.433594 233.824219 287.480469 233.824219 C 287.355469 233.824219 287.5625 234.21875 287.5625 234.21875 " fill-opacity="1" fill-rule="nonzero"/><g clip-path="url(#id2)"><path fill="#f89b2b" d="M 296.722656 282.226562 C 296.480469 276.566406 295.226562 271.414062 293.402344 266.390625 C 291.730469 261.777344 289.78125 257.28125 287.570312 252.902344 C 286.339844 250.453125 285.003906 248.054688 283.722656 245.628906 C 283.453125 245.121094 283.0625 244.863281 282.5 245.03125 C 281.90625 245.210938 282.011719 245.722656 282.058594 246.175781 C 282.136719 246.941406 282.515625 247.59375 282.851562 248.265625 C 285.480469 253.546875 288.078125 258.84375 290.222656 264.351562 C 292.492188 270.167969 294.121094 276.171875 295.308594 282.300781 C 295.433594 282.953125 295.664062 283.582031 295.871094 284.214844 C 295.914062 284.351562 296.054688 284.527344 296.179688 284.554688 C 296.449219 284.621094 296.535156 284.359375 296.554688 284.167969 C 296.640625 283.425781 296.6875 282.679688 296.722656 282.226562 Z M 289.078125 285.867188 C 288.332031 281.789062 287.296875 277.773438 286.082031 273.792969 C 284.824219 269.65625 283.40625 265.578125 281.839844 261.550781 C 279.964844 256.707031 277.945312 251.921875 275.765625 247.207031 C 273.996094 243.390625 272.0625 239.667969 269.375 236.398438 C 268.773438 235.667969 268.035156 235.042969 267.316406 234.417969 C 267.070312 234.203125 266.660156 234.132812 266.402344 234.421875 C 266.136719 234.722656 266.472656 234.9375 266.632812 235.160156 C 267.117188 235.839844 267.617188 236.503906 268.078125 237.195312 C 270.683594 241.113281 272.683594 245.347656 274.570312 249.648438 C 278.003906 257.472656 281.269531 265.359375 283.792969 273.535156 C 285.671875 279.613281 287.261719 285.769531 288.714844 291.960938 C 289.011719 293.230469 289.453125 294.464844 289.832031 295.714844 C 289.945312 295.679688 290.058594 295.644531 290.171875 295.609375 C 290.351562 292.304688 289.667969 289.082031 289.078125 285.867188 Z M 280.570312 282.835938 C 280.082031 275.433594 278.59375 268.273438 275.039062 261.671875 C 274.59375 260.839844 274.101562 259.988281 273.269531 259.449219 C 272.804688 259.144531 272.273438 259.160156 271.867188 259.507812 C 271.386719 259.921875 271.78125 260.328125 272.023438 260.710938 C 272.222656 261.027344 272.414062 261.347656 272.589844 261.675781 C 275.578125 267.230469 276.867188 273.324219 278.191406 279.40625 C 278.621094 281.390625 279.042969 283.382812 279.503906 285.359375 C 279.597656 285.765625 279.605469 286.445312 280.171875 286.390625 C 280.65625 286.347656 280.539062 285.714844 280.558594 285.332031 C 280.597656 284.5 280.570312 283.667969 280.570312 282.835938 Z M 274.847656 283.476562 C 273.59375 275.734375 271.445312 268.246094 268.667969 260.925781 C 266.648438 255.597656 264.472656 250.347656 261.632812 245.398438 C 260.914062 244.140625 260.082031 242.945312 259.289062 241.730469 C 259.160156 241.535156 259.007812 241.242188 258.710938 241.386719 C 258.433594 241.523438 258.523438 241.816406 258.589844 242.054688 C 258.648438 242.253906 258.746094 242.441406 258.828125 242.628906 C 261.382812 248.445312 264.074219 254.199219 266.304688 260.15625 C 269.203125 267.914062 271.5 275.835938 273.308594 283.914062 C 273.742188 285.84375 274.25 287.765625 275.0625 289.589844 C 275.191406 287.527344 275.175781 285.503906 274.847656 283.476562 Z M 268.167969 290.894531 C 268.132812 286.382812 266.925781 282.085938 265.515625 277.878906 C 262.714844 269.527344 259.679688 261.253906 256.105469 253.199219 C 254.046875 248.558594 251.59375 244.128906 248.429688 240.128906 C 247.890625 239.449219 247.265625 238.828125 246.632812 238.234375 C 246.335938 237.957031 245.890625 237.707031 245.503906 238.027344 C 245.066406 238.382812 245.402344 238.808594 245.609375 239.140625 C 246.226562 240.128906 246.894531 241.082031 247.515625 242.0625 C 250.902344 247.402344 253.527344 253.113281 255.835938 258.992188 C 259.585938 268.523438 263.199219 278.105469 266.191406 287.910156 C 266.632812 289.34375 266.972656 290.839844 267.867188 292.164062 C 268.304688 291.722656 268.171875 291.28125 268.167969 290.894531 Z M 307.644531 292.527344 C 307.539062 293.355469 307.183594 293.863281 306.589844 294.214844 C 305.972656 294.585938 305.632812 293.949219 305.253906 293.601562 C 304.855469 293.234375 304.476562 292.847656 304.113281 292.453125 C 303.886719 292.207031 303.695312 291.832031 303.320312 291.984375 C 302.875 292.167969 303 292.621094 303.066406 292.976562 C 303.144531 293.382812 303.300781 293.773438 303.378906 294.179688 C 303.746094 296 303.835938 297.8125 303.140625 299.578125 C 302.683594 300.734375 301.992188 300.902344 301.046875 300.101562 C 299.394531 298.703125 298.367188 296.855469 297.4375 294.941406 C 296.140625 292.269531 294.820312 289.609375 293.515625 286.941406 C 293.398438 286.699219 293.269531 286.460938 292.976562 286.566406 C 292.566406 286.726562 292.648438 287.117188 292.707031 287.429688 C 293.25 290.195312 293.09375 292.984375 292.960938 295.765625 C 292.792969 299.453125 292.433594 303.121094 291.050781 306.597656 C 290.667969 307.558594 290.28125 308.527344 289.558594 309.300781 C 289.019531 309.875 288.519531 309.917969 288.113281 309.117188 C 287.277344 307.460938 286.761719 305.675781 286.5625 303.878906 C 286.109375 299.828125 284.921875 296 283.519531 292.214844 C 282.96875 290.726562 282.679688 289.128906 281.613281 287.835938 C 281.84375 293.09375 281.648438 298.328125 281.671875 303.554688 C 281.679688 305.304688 281.613281 307.050781 281.21875 308.765625 C 281.1875 308.886719 281.183594 309.015625 281.148438 309.132812 C 280.890625 309.972656 280.640625 311.054688 279.773438 311.210938 C 278.914062 311.363281 278.636719 310.261719 278.269531 309.597656 C 276.125 305.710938 274.640625 301.511719 272.695312 297.527344 C 272.480469 297.082031 272.390625 296.386719 271.800781 296.503906 C 271.195312 296.621094 270.746094 297.285156 270.75 297.878906 C 270.761719 299.476562 270.34375 301.007812 270.183594 302.570312 C 269.953125 304.773438 269.152344 306.730469 267.875 308.507812 C 267.601562 308.886719 267.308594 309.304688 266.761719 309.050781 C 266.285156 308.828125 265.890625 308.359375 265.976562 307.867188 C 266.371094 305.625 265.28125 303.632812 264.925781 301.527344 C 264.316406 297.929688 263.480469 294.367188 262.457031 290.855469 C 258.628906 277.726562 253.273438 264.964844 244.988281 254 C 239.960938 247.347656 233.261719 239.371094 226.085938 234.972656 C 225.890625 234.851562 225.683594 234.640625 225.789062 234.351562 C 225.878906 234.109375 226.125 234.15625 226.320312 234.140625 C 233.421875 233.589844 240.457031 232.652344 247.328125 230.722656 C 249.859375 230.011719 252.472656 229.71875 255.035156 229.203125 C 256.433594 228.917969 257.710938 228.335938 259.019531 227.796875 C 260.472656 227.199219 262.050781 227.023438 263.640625 227.035156 C 264.058594 227.039062 264.65625 227.230469 264.847656 226.671875 C 265.015625 226.167969 264.433594 226.015625 264.152344 225.753906 C 259.695312 221.585938 254.597656 218.277344 249.445312 215.082031 C 246.507812 213.261719 243.199219 212.386719 239.675781 212.742188 C 238.425781 212.867188 237.253906 213.339844 236.113281 213.8125 C 231.40625 215.761719 227.082031 214.675781 222.9375 212.222656 C 219.351562 210.105469 216.25 207.296875 212.816406 204.960938 C 209.339844 202.597656 205.785156 200.617188 201.332031 200.824219 C 197.472656 201.003906 193.582031 200.859375 189.78125 200.128906 C 182.515625 198.734375 175.578125 196.464844 169.542969 191.976562 C 165.839844 189.222656 162.089844 186.542969 158.992188 183.0625 C 155.707031 179.371094 153.527344 175.066406 151.730469 170.519531 C 149.632812 165.222656 148.128906 159.753906 147.035156 154.183594 C 145.394531 145.820312 144.527344 137.390625 145.761719 128.882812 C 146.304688 125.140625 147.664062 121.660156 149.6875 118.453125 C 149.953125 118.035156 150.257812 117.625 150.792969 117.5 C 151.160156 117.414062 151.5625 117.328125 151.855469 117.632812 C 152.164062 117.953125 151.855469 118.246094 151.71875 118.53125 C 150.492188 121.171875 149.539062 123.90625 148.910156 126.75 C 148.425781 128.921875 148.566406 131.136719 148.449219 133.335938 C 148.160156 138.761719 148.898438 144.097656 149.804688 149.433594 C 151.140625 157.292969 153.070312 164.960938 156.253906 172.285156 C 158.433594 177.304688 161.726562 181.5 165.984375 184.910156 C 169.613281 187.820312 173.238281 190.78125 177.53125 192.695312 C 181.464844 194.453125 185.554688 195.730469 189.804688 196.589844 C 194.011719 197.441406 198.238281 197.328125 202.46875 197.460938 C 205.742188 197.5625 208.753906 198.539062 211.570312 200.128906 C 215.277344 202.226562 218.550781 204.9375 221.949219 207.476562 C 223.855469 208.90625 225.855469 210.210938 228.136719 210.90625 C 230.691406 211.6875 233.246094 211.535156 235.824219 210.613281 C 239.660156 209.242188 243.554688 209.484375 247.425781 210.703125 C 251.1875 211.886719 254.1875 214.363281 257.441406 216.421875 C 261.9375 219.273438 265.785156 222.871094 269.648438 226.472656 C 271.109375 227.832031 272.570312 229.339844 274.367188 230.117188 C 276.984375 231.25 279.453125 232.84375 282.449219 233.042969 C 284.617188 233.1875 286.746094 233.761719 288.953125 233.714844 C 287.667969 234.40625 286.304688 234.382812 284.945312 234.429688 C 284.5 234.449219 283.90625 234.386719 283.695312 234.828125 C 283.464844 235.316406 284.027344 235.617188 284.292969 235.957031 C 287.191406 239.679688 289.476562 243.78125 291.566406 247.980469 C 295.625 256.113281 299.078125 264.515625 301.808594 273.179688 C 303.382812 278.164062 304.515625 283.28125 306.394531 288.179688 C 306.925781 289.578125 307.859375 290.847656 307.644531 292.527344 Z M 116.46875 83.355469 C 117.328125 84.347656 117.039062 85.742188 116.722656 86.78125 C 116.246094 88.347656 115.894531 89.96875 115.253906 91.5 C 113.953125 94.59375 111.351562 96.179688 108.515625 97.4375 C 106.808594 98.195312 104.894531 98.300781 103.042969 98.335938 C 98.253906 98.707031 94.816406 96.46875 92.160156 92.742188 C 91.167969 91.351562 90.113281 90.019531 88.886719 88.832031 C 88.648438 88.601562 88.300781 88.203125 88.117188 88.261719 C 86.449219 88.761719 85.644531 87.113281 84.324219 86.789062 C 83.84375 86.671875 83.875 86.394531 84.15625 86.058594 C 87.910156 81.585938 92.125 77.628906 97.148438 74.59375 C 100.058594 72.828125 103.167969 72.691406 106.363281 73.613281 C 108.117188 74.121094 109.816406 74.773438 111.433594 75.652344 C 112.957031 76.480469 113.941406 77.917969 115.292969 78.957031 C 116.089844 79.574219 116.308594 80.925781 116.054688 82.09375 C 115.941406 82.628906 116.078125 82.910156 116.46875 83.355469 " fill-opacity="1" fill-rule="nonzero"/></g><g clip-path="url(#id3)"><path fill="#332c2b" d="M 185.875 242.988281 C 185.535156 243.101562 185.320312 243.355469 185.285156 243.722656 C 185.023438 246.582031 183.136719 248.828125 182.371094 251.496094 C 182.210938 252.070312 181.714844 252.261719 181.207031 252.511719 C 179.570312 253.320312 177.765625 252.976562 176.074219 253.367188 C 175.402344 253.519531 175.046875 253.136719 175.253906 252.402344 C 175.546875 251.363281 175.828125 250.320312 176.128906 249.28125 C 176.234375 248.929688 176.332031 248.519531 176.808594 248.5 C 177.261719 248.484375 177.4375 248.847656 177.628906 249.167969 C 177.984375 249.777344 178.207031 250.472656 178.769531 250.941406 C 179.304688 251.390625 179.84375 252.027344 180.601562 251.808594 C 181.40625 251.574219 181.386719 250.714844 181.527344 250.035156 C 181.675781 249.300781 181.527344 248.625 181.0625 248.035156 C 180.398438 247.183594 179.777344 246.289062 179.027344 245.519531 C 178.347656 244.824219 178.179688 244.242188 178.6875 243.339844 C 179.628906 241.675781 180.410156 239.925781 181.09375 238.132812 C 181.363281 237.429688 181.265625 236.984375 180.542969 236.617188 C 179.277344 235.972656 178.882812 236.015625 178.144531 237.3125 C 177.402344 238.609375 176.722656 239.949219 176.085938 241.300781 C 175.570312 242.386719 174.84375 243.046875 173.625 243.359375 C 168.792969 244.585938 163.976562 245.886719 159.164062 247.207031 C 155.878906 248.109375 152.550781 248.878906 149.398438 250.210938 C 147.78125 250.894531 147.527344 251.304688 147.671875 253.074219 C 147.71875 253.609375 147.824219 254.144531 147.976562 254.660156 C 148.203125 255.449219 148.75 256.113281 149.570312 255.945312 C 150.433594 255.765625 150.394531 254.894531 150.203125 254.1875 C 149.945312 253.242188 150.417969 252.894531 151.226562 252.714844 C 152.28125 252.476562 153.332031 252.222656 154.378906 251.953125 C 159.488281 250.648438 164.59375 249.335938 169.703125 248.027344 C 170.90625 247.722656 171.261719 247.929688 170.949219 248.816406 C 170.449219 250.238281 170.152344 251.703125 169.832031 253.164062 C 169.722656 253.675781 169.523438 254.136719 168.957031 254.265625 C 165.960938 254.941406 162.992188 255.757812 159.878906 255.6875 C 158.6875 255.621094 157.605469 256.117188 156.472656 256.355469 C 152.054688 257.285156 151.183594 260.132812 150.445312 263.792969 C 150.316406 264.4375 150.714844 264.832031 151.242188 265.042969 C 151.835938 265.289062 152.1875 264.871094 152.433594 264.414062 C 152.648438 264.015625 152.773438 263.570312 152.972656 263.15625 C 153.585938 261.890625 154.078125 260.484375 155.648438 260.074219 C 156.964844 259.730469 158.253906 259.351562 159.675781 259.398438 C 160.984375 259.4375 162.320312 259.402344 163.644531 259.128906 C 166.492188 258.546875 169.367188 258.074219 172.234375 257.601562 C 172.625 257.539062 173.265625 257.363281 173.367188 258.007812 C 173.449219 258.5 172.917969 258.675781 172.539062 258.804688 C 170.050781 259.652344 167.902344 261.167969 165.59375 262.371094 C 164.460938 262.960938 163.421875 263.710938 162.910156 265.03125 C 162.289062 266.613281 161.542969 268.148438 160.828125 269.695312 C 160.097656 271.269531 160.367188 272.023438 161.921875 272.808594 C 162.636719 273.167969 163.144531 272.992188 163.445312 272.300781 C 164.304688 270.320312 165.191406 268.347656 165.941406 266.324219 C 166.332031 265.273438 166.949219 264.625 167.90625 264.058594 C 171.195312 262.097656 174.683594 260.546875 178.132812 258.914062 C 178.4375 258.769531 178.75 258.527344 179.0625 258.761719 C 179.453125 259.054688 179.1875 259.441406 179.078125 259.785156 C 178.285156 262.238281 177.511719 264.699219 176.695312 267.144531 C 176.398438 268.027344 176.277344 268.925781 176.277344 269.839844 C 176.277344 270.777344 177.585938 272.191406 178.449219 272.109375 C 179.527344 272.003906 179.582031 271.035156 179.726562 270.234375 C 180.148438 267.851562 180.953125 265.570312 181.722656 263.292969 C 182.753906 260.246094 183.007812 256.980469 184.949219 254.167969 C 186.296875 252.226562 186.976562 249.8125 187.910156 247.589844 C 188.214844 246.867188 188.425781 246.097656 188.585938 245.328125 C 188.777344 244.394531 186.777344 242.695312 185.875 242.988281 Z M 129.1875 71.527344 C 129.191406 70.597656 128.519531 69.8125 127.742188 69.84375 C 126.855469 69.878906 125.957031 71.160156 125.972656 72.492188 C 126.09375 73.183594 126.320312 73.945312 127.324219 73.984375 C 128.203125 74.015625 129.183594 72.679688 129.1875 71.527344 Z M 136.691406 70.375 C 137.910156 71.628906 137.855469 73.714844 136.65625 74.984375 C 136.238281 75.425781 135.851562 75.476562 135.359375 75.097656 C 134.546875 74.480469 133.953125 73.699219 133.480469 72.8125 C 133.332031 72.53125 133.238281 72.113281 132.804688 72.203125 C 132.375 72.289062 132.464844 72.703125 132.433594 73.019531 C 131.957031 77.355469 130.105469 78.789062 126.488281 79.835938 C 124.550781 80.398438 122.460938 78.75 122.003906 76.523438 C 121.457031 73.859375 122.476562 71.664062 123.9375 69.546875 C 125.398438 67.425781 127.460938 66.652344 129.964844 66.617188 C 131.488281 66.414062 132.867188 66.851562 134.039062 67.921875 C 134.929688 68.734375 135.851562 69.515625 136.691406 70.375 Z M 120.425781 82.542969 C 120.894531 83.40625 120.414062 84.429688 119.640625 84.949219 C 118.882812 85.46875 118.335938 84.691406 117.9375 84.132812 C 117.445312 83.4375 116.984375 83.546875 116.367188 83.933594 C 114.195312 85.304688 112.074219 86.761719 109.585938 87.566406 C 105.117188 89.011719 100.625 90.296875 95.859375 90.195312 C 93.53125 90.144531 91.203125 90.136719 88.875 90.105469 C 87.347656 90.082031 85.929688 89.628906 84.613281 88.886719 C 84.140625 88.621094 83.421875 88.347656 83.589844 87.640625 C 83.761719 86.90625 84.511719 87.058594 85.066406 87.054688 C 87.3125 87.035156 89.554688 87.046875 91.800781 87.046875 C 96.980469 87.042969 101.902344 86.726562 106.859375 85.042969 C 108.753906 84.398438 116.660156 81.855469 116.375 79.398438 C 116.285156 78.613281 116.546875 78.109375 117.394531 78.007812 C 118.191406 77.914062 118.824219 77.925781 119.125 78.929688 C 119.484375 80.152344 119.796875 81.386719 120.425781 82.542969 " fill-opacity="1" fill-rule="nonzero"/></g><path fill="#fdf1c2" d="M 197.433594 152.300781 C 198.746094 153.132812 200.140625 153.742188 201.726562 153.78125 C 202.675781 153.808594 203.425781 153.449219 203.917969 152.621094 C 204.617188 151.449219 204.804688 150.121094 204.976562 148.816406 C 205.085938 147.984375 204.707031 147.210938 203.753906 147.066406 C 202.832031 146.925781 201.601562 146.886719 201.476562 147.988281 C 201.265625 149.910156 200.617188 150.636719 198.964844 149.769531 C 198.5 149.796875 198.246094 149.785156 198.003906 149.824219 C 197.382812 149.929688 196.734375 150.007812 196.574219 150.792969 C 196.429688 151.539062 196.886719 151.953125 197.433594 152.300781 Z M 200.0625 136.789062 C 200.839844 137.300781 201.484375 137.207031 202.171875 136.5625 C 203.660156 135.15625 203.46875 133.242188 203.796875 131.65625 C 203.820312 130.09375 203.25 129.152344 202.347656 129.082031 C 201.207031 128.996094 199.867188 129.832031 199.898438 130.851562 C 199.949219 132.511719 199.464844 132.386719 198.386719 131.566406 C 197.832031 131.140625 197.101562 131.15625 196.574219 131.734375 C 196.078125 132.28125 196.417969 132.828125 196.738281 133.320312 C 197.625 134.6875 198.6875 135.886719 200.0625 136.789062 Z M 201.644531 168.871094 C 203.382812 169.078125 204.042969 168.710938 204.699219 167.078125 C 205.070312 166.164062 205.09375 165.21875 205.070312 164.398438 C 205.070312 164.015625 205.074219 163.765625 205.070312 163.519531 C 205.039062 161.828125 204.34375 161.3125 202.707031 161.695312 C 201.605469 161.953125 201.285156 162.675781 201.265625 163.703125 C 201.238281 165.324219 201.214844 165.316406 199.695312 165.074219 C 199.039062 164.964844 198.375 164.929688 197.714844 165.054688 C 197.246094 165.144531 196.84375 165.347656 196.691406 165.84375 C 196.523438 166.390625 196.882812 166.703125 197.253906 166.976562 C 198.574219 167.945312 199.984375 168.675781 201.644531 168.871094 Z M 175.117188 174.242188 C 175.972656 175.019531 176.855469 174.871094 177.582031 173.957031 C 178.230469 173.140625 178.683594 172.21875 178.96875 171.207031 C 179.429688 169.570312 178.96875 168.929688 177.277344 169.023438 C 176.144531 169.085938 175.050781 169.769531 174.0625 169.210938 C 173.148438 169.242188 172.417969 169.414062 172.070312 170.085938 C 171.753906 170.699219 172.328125 171.1875 172.675781 171.605469 C 173.441406 172.527344 174.234375 173.4375 175.117188 174.242188 Z M 192.382812 150.660156 C 190.972656 149.964844 189.085938 150.964844 188.8125 152.519531 C 188.664062 153.375 188.472656 154.226562 188.261719 155.070312 C 188.050781 155.902344 187.640625 156.027344 187.101562 155.304688 C 186.28125 154.191406 185.25 154.410156 184.195312 154.835938 C 183.507812 155.117188 183.28125 155.53125 183.625 156.308594 C 184.402344 158.046875 185.6875 159.332031 187.234375 160.320312 C 188.777344 161.3125 189.566406 161.042969 190.667969 159.507812 C 192.191406 157.378906 192.429688 154.816406 193.082031 152.585938 C 193.0625 151.730469 193.128906 151.03125 192.382812 150.660156 Z M 187.65625 177.484375 C 186.242188 176.90625 184.597656 177.75 184.34375 179.273438 C 184.191406 180.203125 183.828125 180.199219 183.21875 179.710938 C 182.640625 179.257812 182.011719 178.996094 181.265625 179.078125 C 179.792969 179.238281 179.457031 179.945312 180.3125 181.140625 C 181.25 182.449219 182.558594 183.324219 183.875 184.191406 C 184.222656 184.421875 184.574219 184.644531 185.160156 184.664062 C 185.796875 184.648438 186.308594 184.1875 186.738281 183.597656 C 187.828125 182.113281 187.976562 180.289062 188.457031 178.59375 C 188.613281 178.039062 188.152344 177.691406 187.65625 177.484375 Z M 180.910156 155.851562 C 181.226562 154.574219 180.871094 153.609375 179.972656 153.351562 C 178.859375 153.023438 177.496094 153.667969 177.207031 154.8125 C 176.90625 155.972656 176.664062 156.949219 175.171875 156.042969 C 175.082031 155.992188 174.929688 156.039062 174.804688 156.039062 C 173.601562 156.046875 173.113281 156.765625 173.636719 157.824219 C 174.128906 158.824219 174.667969 159.796875 175.496094 160.59375 C 177.039062 162.082031 178.472656 161.875 179.472656 159.945312 C 180.144531 158.652344 180.5625 157.261719 180.910156 155.851562 Z M 200.078125 182.847656 C 201.28125 183.746094 201.960938 183.664062 202.953125 182.515625 C 204.023438 181.277344 203.980469 179.652344 204.496094 178.3125 C 204.492188 177.535156 204.144531 177.101562 203.476562 177.019531 C 202.945312 176.953125 202.359375 176.882812 201.871094 177.039062 C 201.054688 177.304688 200.324219 177.347656 199.472656 177.117188 C 198.699219 176.914062 197.851562 177.246094 197.347656 177.902344 C 196.820312 178.578125 197.28125 179.28125 197.667969 179.855469 C 198.386719 180.914062 199.015625 182.054688 200.078125 182.847656 Z M 293.402344 266.390625 C 291.730469 261.777344 289.78125 257.28125 287.570312 252.902344 C 286.339844 250.453125 285.003906 248.054688 283.722656 245.628906 C 283.453125 245.121094 283.0625 244.863281 282.5 245.03125 C 281.90625 245.210938 282.011719 245.722656 282.058594 246.175781 C 282.136719 246.941406 282.515625 247.59375 282.851562 248.265625 C 285.480469 253.546875 288.078125 258.84375 290.222656 264.351562 C 292.492188 270.167969 294.121094 276.171875 295.308594 282.300781 C 295.433594 282.953125 295.664062 283.582031 295.871094 284.214844 C 295.914062 284.351562 296.054688 284.527344 296.179688 284.554688 C 296.449219 284.621094 296.535156 284.359375 296.554688 284.167969 C 296.640625 283.425781 296.6875 282.679688 296.722656 282.226562 C 296.480469 276.566406 295.226562 271.414062 293.402344 266.390625 Z M 275.039062 261.671875 C 274.59375 260.839844 274.101562 259.988281 273.269531 259.449219 C 272.804688 259.144531 272.273438 259.160156 271.867188 259.507812 C 271.386719 259.921875 271.78125 260.328125 272.023438 260.710938 C 272.222656 261.027344 272.414062 261.347656 272.589844 261.675781 C 275.578125 267.230469 276.867188 273.324219 278.191406 279.40625 C 278.621094 281.390625 279.042969 283.382812 279.503906 285.359375 C 279.597656 285.765625 279.605469 286.445312 280.171875 286.390625 C 280.65625 286.347656 280.539062 285.714844 280.558594 285.332031 C 280.597656 284.5 280.570312 283.667969 280.570312 282.835938 C 280.082031 275.433594 278.59375 268.273438 275.039062 261.671875 Z M 172.503906 148.121094 C 173.726562 149.003906 175.070312 148.792969 175.851562 147.539062 C 176.949219 145.769531 177.75 143.855469 177.820312 141.730469 C 177.894531 139.640625 177.226562 139.171875 175.191406 139.738281 C 174.574219 139.910156 174.199219 140.261719 173.949219 140.835938 C 173.625 141.570312 173.605469 142.363281 173.445312 143.253906 C 172.71875 142.941406 172.65625 142.273438 172.265625 141.859375 C 171.519531 141.070312 170.628906 141.179688 169.726562 141.417969 C 169.136719 141.578125 168.90625 142.125 169.109375 142.601562 C 169.96875 144.601562 170.625 146.761719 172.503906 148.121094 Z M 286.082031 273.792969 C 284.824219 269.65625 283.40625 265.578125 281.839844 261.550781 C 279.964844 256.707031 277.945312 251.921875 275.765625 247.207031 C 273.996094 243.390625 272.0625 239.667969 269.375 236.398438 C 268.773438 235.667969 268.035156 235.042969 267.316406 234.417969 C 267.070312 234.203125 266.660156 234.132812 266.402344 234.421875 C 266.136719 234.722656 266.472656 234.9375 266.632812 235.160156 C 267.117188 235.839844 267.617188 236.503906 268.078125 237.195312 C 270.683594 241.113281 272.683594 245.347656 274.570312 249.648438 C 278.003906 257.472656 281.269531 265.359375 283.792969 273.535156 C 285.671875 279.613281 287.261719 285.769531 288.714844 291.960938 C 289.011719 293.230469 289.453125 294.464844 289.832031 295.714844 C 289.945312 295.679688 290.058594 295.644531 290.171875 295.609375 C 290.351562 292.304688 289.667969 289.082031 289.078125 285.867188 C 288.332031 281.789062 287.296875 277.773438 286.082031 273.792969 Z M 268.667969 260.925781 C 266.648438 255.597656 264.472656 250.347656 261.632812 245.398438 C 260.914062 244.140625 260.082031 242.945312 259.289062 241.730469 C 259.160156 241.535156 259.007812 241.242188 258.710938 241.386719 C 258.433594 241.523438 258.523438 241.816406 258.589844 242.054688 C 258.648438 242.253906 258.746094 242.441406 258.828125 242.628906 C 261.382812 248.445312 264.074219 254.199219 266.304688 260.15625 C 269.203125 267.914062 271.5 275.835938 273.308594 283.914062 C 273.742188 285.84375 274.25 287.765625 275.0625 289.589844 C 275.191406 287.527344 275.175781 285.503906 274.847656 283.476562 C 273.59375 275.734375 271.445312 268.246094 268.667969 260.925781 Z M 222.519531 233.257812 C 219.488281 233.15625 219.421875 233.078125 216.390625 232.964844 C 211.472656 232.78125 206.636719 231.96875 201.847656 231.011719 C 201.246094 230.890625 200.648438 230.761719 200.046875 230.625 C 199.191406 231.910156 198.320312 233.1875 197.449219 234.464844 C 201.144531 235.164062 204.871094 235.628906 208.625 235.863281 C 214.316406 236.222656 224.78125 234.847656 224.78125 234.390625 C 224.78125 233.804688 222.90625 233.273438 222.519531 233.257812 Z M 145.777344 189.230469 C 138.667969 176.535156 134.144531 162.875 130.921875 148.75 C 129.644531 143.152344 128.648438 137.503906 127.730469 131.84375 C 127.011719 127.410156 126.285156 122.980469 125.714844 118.527344 C 125.347656 115.621094 124.851562 112.789062 123.714844 110.066406 C 121.558594 104.925781 116.078125 101.78125 110.589844 102.671875 C 106.671875 103.308594 103.238281 105.164062 99.800781 107.023438 C 98.738281 107.59375 98.019531 108.832031 96.890625 108.996094 C 95.292969 109.21875 94.972656 110.089844 94.9375 111.367188 C 94.855469 114.527344 94.78125 117.6875 94.683594 120.84375 C 94.65625 121.757812 94.609375 122.675781 94.5 123.578125 C 94.15625 126.5 94.242188 129.441406 93.761719 132.367188 C 93.292969 135.195312 94.507812 137.929688 94.824219 140.726562 C 95.042969 142.660156 95.410156 144.585938 95.769531 146.503906 C 95.996094 147.703125 96.589844 148.8125 97.785156 149.15625 C 99.039062 149.515625 99.710938 148.476562 100.3125 147.542969 C 100.375 147.445312 100.496094 147.390625 100.640625 147.269531 C 100.976562 147.699219 100.898438 148.089844 100.890625 148.449219 C 100.769531 153.054688 102.035156 157.382812 103.5625 161.644531 C 104.628906 164.613281 106.023438 167.449219 107.03125 170.445312 C 107.421875 171.613281 108.171875 172.644531 109.195312 173.4375 C 110.429688 174.386719 112.042969 174.117188 112.84375 172.777344 C 112.992188 172.519531 112.949219 172.082031 113.535156 172.085938 C 113.890625 173.285156 114.257812 174.507812 114.617188 175.730469 C 115.398438 178.359375 116.042969 181.019531 116.964844 183.605469 C 118.761719 188.628906 122.78125 191.925781 126.300781 195.605469 C 127.082031 196.425781 128.164062 196.625 129.308594 196.464844 C 130.464844 196.304688 130.285156 195.226562 130.648438 194.375 C 130.910156 194.738281 131.113281 194.949219 131.230469 195.203125 C 132.597656 198.152344 134.488281 200.8125 135.96875 203.695312 C 137.847656 207.355469 140.765625 210.023438 143.960938 212.453125 C 145.09375 213.308594 145.757812 213.085938 146.4375 211.835938 C 146.796875 211.171875 146.800781 210.457031 146.847656 209.667969 C 149.65625 211.769531 152.289062 213.863281 155.042969 215.785156 C 162.675781 221.105469 170.6875 225.609375 179.210938 229.042969 C 179.496094 228.84375 179.894531 228.796875 180.3125 228.800781 C 183.316406 228.824219 184.113281 228.167969 185.121094 225.675781 C 177.28125 222.257812 170.113281 217.742188 163.738281 211.933594 C 156.511719 205.359375 150.546875 197.75 145.777344 189.230469 Z M 265.515625 277.878906 C 262.714844 269.527344 259.679688 261.253906 256.105469 253.199219 C 254.046875 248.558594 251.59375 244.128906 248.429688 240.128906 C 247.890625 239.449219 247.265625 238.828125 246.632812 238.234375 C 246.335938 237.957031 245.890625 237.707031 245.503906 238.027344 C 245.066406 238.382812 245.402344 238.808594 245.609375 239.140625 C 246.226562 240.128906 246.894531 241.082031 247.515625 242.0625 C 250.902344 247.402344 253.527344 253.113281 255.835938 258.992188 C 259.585938 268.523438 263.199219 278.105469 266.191406 287.910156 C 266.632812 289.34375 266.972656 290.839844 267.867188 292.164062 C 268.304688 291.722656 268.171875 291.28125 268.167969 290.894531 C 268.132812 286.382812 266.925781 282.085938 265.515625 277.878906 Z M 230.449219 193.007812 C 231.253906 191.386719 231.65625 189.664062 231.503906 187.8125 C 231.503906 187.136719 231.527344 186.429688 231.496094 185.722656 C 231.457031 184.894531 230.960938 184.4375 230.167969 184.324219 C 228.941406 184.152344 227.808594 185.128906 227.757812 186.375 C 227.710938 187.535156 227.84375 188.699219 227.609375 189.851562 C 227.453125 190.609375 227.292969 191.082031 226.46875 190.355469 C 225.316406 189.332031 223.890625 189.289062 222.46875 189.476562 C 221.265625 189.636719 220.941406 190.59375 221.722656 191.558594 C 222.148438 192.082031 222.796875 192.347656 223.273438 192.78125 C 224.75 194.125 226.269531 194.871094 228.378906 194.316406 C 229.296875 194.074219 230.03125 193.851562 230.449219 193.007812 Z M 235.574219 197.535156 C 234.601562 197.589844 233.664062 197.855469 233.34375 198.980469 C 233.050781 200.003906 232.757812 200.851562 231.382812 200.0625 C 230.890625 199.78125 230.09375 199.855469 229.675781 200.433594 C 229.242188 201.039062 229.570312 201.628906 229.957031 202.144531 C 230.636719 203.046875 231.410156 203.851562 232.433594 204.371094 C 233.3125 204.820312 234.117188 204.71875 234.824219 204.011719 C 236.175781 202.652344 236.496094 200.828125 236.980469 199.527344 C 237.101562 198.054688 236.597656 197.476562 235.574219 197.535156 Z M 138.144531 53.824219 C 138.332031 53.914062 138.527344 53.988281 138.71875 54.066406 C 141.9375 55.410156 145.121094 56.824219 148.207031 58.46875 C 155.730469 62.492188 162.589844 67.417969 168.703125 73.386719 C 173.230469 77.8125 177.371094 82.566406 181 87.765625 C 182.394531 89.757812 183.773438 91.757812 185.371094 94.070312 C 183.519531 93.28125 182.050781 92.542969 180.480469 92.054688 C 179.269531 91.675781 178.109375 91.699219 177.007812 92.398438 C 176.5 92.722656 176.292969 93.1875 176.359375 93.78125 C 176.421875 94.339844 176.742188 94.789062 177.265625 94.84375 C 178.808594 95.003906 179.230469 96.203125 179.738281 97.34375 C 180.023438 97.988281 180.246094 98.664062 180.558594 99.296875 C 181.277344 100.742188 182.238281 101.964844 183.777344 102.632812 C 184.632812 103.007812 185.121094 102.5 185.542969 101.902344 C 185.964844 101.304688 185.710938 100.800781 185.210938 100.378906 C 185.085938 100.269531 184.949219 100.179688 184.820312 100.074219 C 184.464844 99.796875 184.191406 99.445312 184.484375 99.011719 C 184.761719 98.601562 185.164062 98.839844 185.496094 98.996094 C 186.058594 99.257812 186.597656 99.585938 187.167969 99.828125 C 188.195312 100.261719 189.207031 100.730469 190.394531 100.605469 C 192.40625 100.390625 193.179688 99.125 192.386719 97.335938 C 191.65625 95.6875 190.496094 94.332031 189.496094 92.859375 C 186.707031 88.742188 183.929688 84.621094 180.890625 80.675781 C 177.222656 75.902344 172.871094 71.78125 168.492188 67.722656 C 163.914062 63.488281 158.722656 60.015625 153.261719 56.960938 C 148.785156 54.453125 144.074219 52.550781 139.125 51.21875 C 138.335938 51.003906 137.601562 51.167969 137.269531 52.035156 C 136.921875 52.917969 137.390625 53.453125 138.144531 53.824219 Z M 170.574219 115.808594 C 171.023438 115.851562 171.429688 115.597656 171.8125 115.246094 C 172.734375 114.410156 173.269531 113.394531 173.539062 112.171875 C 173.722656 111.34375 173.898438 110.566406 173.078125 110.070312 C 172.292969 109.59375 171.378906 109.703125 170.769531 110.328125 C 169.820312 111.304688 169.195312 111.246094 168.472656 110.105469 C 167.976562 109.328125 167.109375 109.019531 166.300781 109.515625 C 165.46875 110.03125 165.722656 110.921875 166.039062 111.648438 C 166.730469 113.246094 167.902344 114.464844 169.316406 115.457031 C 169.664062 115.699219 170.054688 115.832031 170.574219 115.808594 Z M 216.492188 147.402344 C 215.496094 149.105469 214.175781 148.933594 212.546875 148.886719 C 210.832031 148.839844 210.40625 149.992188 211.484375 151.375 C 212.582031 152.78125 214.125 153.621094 215.804688 154.171875 C 216.34375 154.347656 216.890625 154.175781 217.289062 153.757812 C 218.601562 152.390625 219.191406 150.683594 219.53125 149.164062 C 219.542969 148.246094 219.628906 147.539062 218.941406 147.226562 C 218.109375 146.851562 216.886719 146.730469 216.492188 147.402344 Z M 251.585938 196.382812 C 252.6875 196.214844 253.347656 195.535156 253.867188 194.617188 C 254.734375 193.078125 255.042969 191.367188 255.5 189.695312 C 255.890625 188.269531 255.679688 187.480469 254.6875 187.246094 C 253.054688 186.859375 251.730469 187.472656 251.527344 188.800781 C 251.421875 189.46875 251.179688 190.074219 251.011719 190.714844 C 250.5625 192.402344 250.539062 192.445312 248.957031 191.71875 C 247.964844 191.265625 247.023438 191.015625 245.992188 191.582031 C 245.277344 191.976562 245.128906 192.5 245.609375 193.109375 C 247.136719 195.039062 249.308594 195.824219 251.585938 196.382812 Z M 219.105469 162.117188 C 218.234375 162.347656 217.757812 163.03125 218.28125 163.945312 C 218.855469 164.941406 219.722656 165.503906 220.929688 165.519531 C 222.144531 165.539062 223.191406 165.429688 223.890625 164.179688 C 224.890625 162.394531 224.3125 160.417969 224.769531 158.875 C 224.769531 158.371094 224.769531 158.164062 224.769531 157.957031 C 224.761719 156.058594 223.875 155.421875 222.066406 155.941406 C 220.976562 156.257812 220.496094 156.9375 220.523438 158.042969 C 220.539062 158.625 220.472656 159.214844 220.53125 159.789062 C 220.652344 160.949219 220.402344 161.777344 219.105469 162.117188 Z M 214.738281 139.1875 C 215.214844 139.179688 215.691406 138.800781 216.082031 138.289062 C 216.71875 137.453125 217.117188 136.5 217.484375 135.523438 C 217.804688 134.660156 218.085938 133.808594 217.121094 133.203125 C 216.367188 132.726562 214.738281 133.027344 214.300781 133.8125 C 213.757812 134.785156 213.296875 135.019531 212.347656 134.265625 C 211.820312 133.851562 211.066406 133.984375 210.46875 134.386719 C 210.121094 134.625 210.058594 134.972656 210.121094 135.378906 C 210.347656 136.855469 213.023438 139.175781 214.738281 139.1875 Z M 280.359375 228.382812 C 281.410156 228.441406 281.957031 227.753906 282.1875 226.851562 C 282.433594 225.894531 282.554688 224.90625 282.648438 224.386719 C 282.699219 222.941406 282.546875 222.039062 281.433594 221.765625 C 280.421875 221.511719 279.546875 221.9375 279.179688 222.855469 C 278.769531 223.878906 279.0625 225.171875 277.976562 225.953125 C 277.914062 226 277.9375 226.191406 277.945312 226.308594 C 278.007812 227.09375 279.40625 228.335938 280.359375 228.382812 Z M 251.25 179.308594 C 251.503906 179.1875 251.75 178.992188 251.921875 178.773438 C 252.886719 177.539062 253.550781 176.171875 253.683594 174.582031 C 253.75 173.796875 253.390625 173.214844 252.648438 173.117188 C 251.578125 172.976562 250.5 173.226562 249.960938 174.257812 C 249.554688 175.03125 249.148438 175.492188 248.328125 175.253906 C 246.847656 175.238281 246.078125 175.683594 246.152344 176.464844 C 246.304688 178 249.84375 179.988281 251.25 179.308594 Z M 272.347656 220.558594 C 273.023438 220.902344 273.734375 220.78125 274.234375 220.105469 C 275.578125 218.304688 276.132812 216.175781 276.617188 214.050781 C 276.855469 213.027344 276.1875 212.484375 275.054688 212.480469 C 273.738281 212.472656 272.769531 213.089844 272.492188 214.382812 C 272.203125 215.722656 271.71875 216.628906 270.140625 216.472656 C 269.617188 216.421875 269.179688 216.726562 269.007812 217.273438 C 268.847656 217.769531 269.046875 218.171875 269.402344 218.503906 C 270.289062 219.324219 271.277344 220.015625 272.347656 220.558594 Z M 253.808594 204.511719 C 253.527344 205.1875 253.730469 205.8125 254.242188 206.332031 C 255.175781 207.285156 256.234375 208.09375 257.347656 208.816406 C 258.941406 209.839844 260.0625 209.464844 260.71875 207.644531 C 261.335938 205.9375 261.839844 204.191406 262.351562 202.449219 C 262.65625 201.410156 262.152344 200.78125 261.046875 200.703125 C 259.390625 200.59375 258.457031 201.332031 257.988281 203.085938 C 257.757812 203.945312 257.703125 205.113281 256.304688 204.109375 C 256.058594 203.9375 255.664062 203.972656 255.453125 203.933594 C 254.773438 203.996094 254.09375 203.832031 253.808594 204.511719 Z M 229.800781 178.035156 C 230.890625 178.246094 231.957031 178.394531 232.90625 177.679688 C 234.902344 176.171875 235.511719 173.933594 236 171.867188 C 235.976562 171.140625 235.984375 170.636719 235.445312 170.355469 C 234.199219 169.703125 232.421875 170.367188 231.945312 171.6875 C 231.792969 172.113281 231.773438 172.585938 231.636719 173.015625 C 231.070312 174.777344 230.308594 175.078125 228.796875 174.0625 C 228.210938 173.671875 227.644531 173.449219 226.945312 173.542969 C 225.511719 173.734375 225.152344 174.511719 226 175.664062 C 226.953125 176.949219 228.214844 177.730469 229.800781 178.035156 Z M 159.828125 128.675781 C 160.769531 130.382812 161.804688 132.046875 163.300781 133.351562 C 164.089844 134.039062 164.867188 133.910156 165.480469 133.160156 C 166.792969 131.558594 167.5625 129.695312 167.902344 127.90625 C 167.972656 126.699219 167.625 126.210938 166.605469 126.308594 C 164.675781 126.492188 162.804688 127.019531 160.804688 126.84375 C 159.710938 126.75 159.277344 127.679688 159.828125 128.675781 Z M 160.238281 149.316406 C 161.820312 150.828125 163.480469 150.566406 164.410156 148.550781 C 165.183594 146.886719 165.613281 145.121094 165.59375 143.265625 C 165.574219 141.457031 164.945312 140.972656 163.191406 141.382812 C 162.367188 141.570312 161.871094 142.027344 161.695312 142.855469 C 161.566406 143.457031 161.40625 144.058594 161.195312 144.914062 C 160.378906 143.796875 160.015625 142.710938 159.246094 141.886719 C 158.683594 141.292969 158.027344 141.203125 157.316406 141.5625 C 156.613281 141.917969 156.601562 142.523438 156.824219 143.167969 C 157.597656 145.417969 158.464844 147.617188 160.238281 149.316406 Z M 164.019531 164.386719 C 165.15625 165.140625 165.777344 165.105469 166.550781 164.03125 C 167.726562 162.390625 168.316406 160.476562 168.808594 158.558594 C 169.132812 157.285156 168.339844 156.582031 167.023438 156.773438 C 165.640625 156.972656 164.816406 157.808594 164.5 159.246094 C 163.964844 158.945312 163.929688 158.546875 163.789062 158.214844 C 163.195312 156.832031 162.285156 156.382812 161.0625 156.886719 C 159.644531 157.46875 160.371094 158.453125 160.691406 159.265625 C 161.445312 161.195312 162.164062 163.160156 164.019531 164.386719 Z M 171.449219 88.824219 C 172.632812 88.050781 174.074219 88.132812 175.320312 87.542969 C 177.261719 86.625 177.496094 85.695312 176.023438 84.175781 C 173.402344 81.457031 170.703125 78.855469 167.59375 76.648438 C 163.175781 73.511719 158.582031 70.730469 153.621094 68.542969 C 152.792969 68.179688 151.675781 67.558594 151.171875 68.519531 C 150.683594 69.445312 151.8125 70.078125 152.550781 70.585938 C 155.390625 72.53125 158.273438 74.429688 161.105469 76.390625 C 164.214844 78.539062 167.339844 80.660156 170.132812 83.234375 C 170.976562 84.011719 170.882812 84.367188 169.875 84.859375 C 168.121094 85.710938 166.734375 86.917969 166.824219 89.128906 C 166.824219 89.417969 166.800781 89.710938 166.828125 90 C 166.9375 91.09375 168.238281 92.109375 169.550781 92.074219 C 170.882812 92.03125 170.535156 90.980469 170.578125 90.214844 C 170.613281 89.5625 170.90625 89.179688 171.449219 88.824219 Z M 153.6875 82.199219 C 152.605469 83.105469 152.429688 84.390625 152.328125 85.886719 C 152.394531 86.234375 152.445312 86.777344 152.601562 87.289062 C 153.074219 88.828125 154.816406 89.726562 156.273438 89.214844 C 157.460938 88.800781 157.574219 88.105469 156.683594 86.128906 C 156.449219 85.609375 156.53125 85.273438 156.957031 84.949219 C 157.324219 84.675781 157.679688 84.386719 158.019531 84.085938 C 159.964844 82.375 159.910156 81.519531 157.859375 79.84375 C 155.519531 77.925781 152.878906 76.566406 150.035156 75.585938 C 149.183594 75.292969 148.328125 75.195312 147.851562 76.117188 C 147.367188 77.058594 147.96875 77.6875 148.71875 78.171875 C 148.996094 78.351562 149.296875 78.496094 149.59375 78.644531 C 150.964844 79.335938 152.332031 80.03125 153.5625 80.964844 C 154.105469 81.375 154.304688 81.679688 153.6875 82.199219 Z M 214.023438 181.246094 C 215.421875 181.410156 216.304688 180.796875 216.964844 179.597656 C 217.960938 177.785156 218.136719 175.820312 218.265625 173.832031 C 218.296875 173.359375 218.121094 172.933594 217.679688 172.667969 C 216.273438 171.8125 214.375 172.660156 214.105469 174.277344 C 213.992188 174.972656 213.996094 175.691406 213.839844 176.375 C 213.574219 177.539062 213.082031 177.757812 212.066406 177.140625 C 211.332031 176.695312 210.605469 176.375 209.730469 176.460938 C 208.609375 176.574219 208.105469 177.402344 208.792969 178.25 C 210.136719 179.910156 211.84375 181.035156 214.023438 181.246094 Z M 184.671875 144.601562 C 186.042969 145.386719 186.875 145.144531 187.632812 143.777344 C 188.710938 141.832031 188.839844 139.671875 189.070312 137.996094 C 189.140625 136.515625 189.015625 135.574219 187.789062 135.335938 C 186.714844 135.125 185.441406 136.003906 185.179688 137.144531 C 185.039062 137.746094 184.988281 138.375 184.949219 138.996094 C 184.882812 140.039062 184.691406 140.621094 183.570312 139.699219 C 182.871094 139.121094 182.015625 139.296875 181.390625 139.855469 C 180.679688 140.488281 181.207031 141.203125 181.589844 141.753906 C 182.398438 142.921875 183.421875 143.890625 184.671875 144.601562 Z M 182.746094 121.351562 C 182.875 120.382812 182.410156 119.964844 181.535156 119.84375 C 180.164062 119.65625 179.238281 120.148438 178.722656 121.464844 C 178.332031 122.449219 177.898438 122.625 177.160156 121.792969 C 176.660156 121.234375 175.992188 121.019531 175.234375 121.078125 C 174.546875 121.046875 173.878906 121.144531 173.523438 121.828125 C 173.148438 122.550781 173.582031 123.105469 174.035156 123.609375 C 175.09375 124.789062 176.21875 125.890625 177.570312 126.738281 C 179.039062 127.667969 180.089844 127.46875 181.035156 125.988281 C 181.9375 124.574219 182.53125 123.035156 182.746094 121.351562 Z M 191.300781 168.152344 C 190.789062 170.027344 190.242188 171.90625 188.832031 173.367188 C 188.109375 174.117188 187.304688 174.132812 186.453125 173.652344 C 185.160156 172.921875 184.1875 171.839844 183.324219 170.664062 C 183.035156 170.273438 182.773438 169.757812 183.058594 169.261719 C 183.433594 168.609375 184.113281 168.523438 184.886719 168.503906 C 185.046875 168.523438 185.335938 168.484375 185.53125 168.601562 C 186.496094 169.160156 186.886719 168.765625 187.253906 167.832031 C 187.648438 166.832031 189.488281 166.253906 190.5 166.648438 C 191.207031 166.925781 191.476562 167.507812 191.300781 168.152344 " fill-opacity="1" fill-rule="nonzero"/></svg>