<svg xmlns="http://www.w3.org/2000/svg" xmlns:xlink="http://www.w3.org/1999/xlink" width="500" zoomAndPan="magnify" viewBox="0 0 375 374.999991" height="500" preserveAspectRatio="xMidYMid meet" version="1.0"><defs><clipPath id="id1"><path d="M 80 28 L 298.789062 28 L 298.789062 337.605469 L 80 337.605469 Z M 80 28 " clip-rule="nonzero"/></clipPath></defs><path fill="#ffffff" d="M 86.027344 202.789062 C 85.425781 209.914062 87.988281 216.898438 90.675781 223.519531 C 95.261719 234.851562 100.414062 246.117188 108.027344 255.636719 C 120.011719 270.574219 137.523438 280.417969 156.027344 285.25 C 174.527344 290.078125 193.988281 290.179688 212.988281 288.046875 C 227.496094 286.410156 242.382812 283.296875 254.382812 274.921875 C 257.371094 272.792969 260.183594 270.449219 262.820312 267.894531 C 269.210938 261.785156 274.789062 255.007812 279.554688 247.558594 C 284.324219 240.113281 288.144531 232.207031 291.019531 223.84375 C 292.5625 219.347656 293.820312 214.699219 294.050781 209.949219 C 294.765625 195.660156 286.355469 182.707031 278.28125 170.894531 C 264.5625 150.804688 250.640625 130.476562 232.386719 114.417969 C 220.398438 103.878906 205.261719 94.96875 189.425781 96.6875 C 175.910156 98.152344 164.484375 107 153.933594 115.582031 C 127.167969 137.378906 99.902344 160.828125 86.007812 192.488281 " fill-opacity="1" fill-rule="nonzero"/><path fill="#ffffff" d="M 85.710938 202.789062 C 85.175781 212.988281 89.777344 222.6875 93.828125 231.804688 C 97.878906 240.925781 102.660156 249.785156 109.101562 257.417969 C 120.972656 271.425781 137.734375 280.683594 155.339844 285.394531 C 176.332031 291.019531 198.808594 290.691406 220.160156 287.441406 C 229.503906 286.019531 238.832031 283.746094 247.285156 279.507812 C 256.460938 274.921875 264.070312 267.808594 270.695312 260.066406 C 276.757812 252.964844 281.851562 245.222656 285.976562 236.84375 C 290.242188 228.179688 294.359375 218.324219 294.425781 208.535156 C 294.480469 199.386719 290.886719 190.753906 286.402344 182.949219 C 281.046875 173.609375 274.605469 164.800781 268.398438 156.015625 C 256.527344 139.191406 243.59375 122.308594 227.144531 109.691406 C 212.632812 98.570312 194.914062 92.109375 177.273438 99.699219 C 167.292969 103.988281 158.847656 111.179688 150.507812 118.011719 C 141.890625 125.066406 133.367188 132.238281 125.273438 139.867188 C 109.195312 154.953125 94.78125 172.015625 85.730469 192.300781 C 85.566406 192.667969 86.113281 192.988281 86.277344 192.617188 C 101.214844 159.148438 130.398438 134.425781 158.605469 112.273438 C 166.25 106.273438 174.527344 100.476562 184.066406 98.015625 C 194.5625 95.304688 205.277344 97.601562 214.773438 102.476562 C 231.976562 111.320312 245.585938 126.871094 257.269531 141.945312 C 263.363281 149.800781 269.054688 157.949219 274.675781 166.144531 C 279.878906 173.722656 285.339844 181.300781 289.214844 189.667969 C 294.183594 200.402344 294.890625 210.984375 291.246094 222.269531 C 288.351562 231.171875 284.371094 239.558594 279.308594 247.429688 C 268.433594 264.414062 253.617188 278.371094 233.890625 283.929688 C 214.878906 289.265625 193.589844 290.351562 174.023438 288.222656 C 152.652344 285.878906 131.367188 278.15625 115.496094 263.214844 C 107.535156 255.734375 101.621094 246.589844 96.84375 236.800781 C 91.835938 226.507812 85.722656 214.496094 86.339844 202.769531 C 86.339844 202.359375 85.710938 202.359375 85.710938 202.769531 Z M 85.710938 202.789062 " fill-opacity="1" fill-rule="nonzero"/><path fill="#ffa54d" d="M 110.417969 261.257812 C 109.871094 263.285156 109.511719 265.347656 109.34375 267.441406 C 109.175781 269.535156 109.199219 271.625 109.414062 273.714844 C 109.628906 275.804688 110.035156 277.855469 110.628906 279.871094 C 111.21875 281.886719 111.992188 283.832031 112.941406 285.703125 C 117.988281 295.484375 127.558594 302.324219 137.902344 306.023438 C 148.25 309.726562 159.351562 310.597656 170.34375 310.929688 C 170.617188 309.933594 170.964844 308.964844 171.386719 308.023438 C 171.808594 307.078125 172.296875 306.175781 172.859375 305.308594 C 173.421875 304.441406 174.042969 303.621094 174.730469 302.851562 C 175.417969 302.082031 176.160156 301.367188 176.957031 300.710938 C 177.753906 300.054688 178.597656 299.464844 179.484375 298.9375 C 180.375 298.410156 181.296875 297.957031 182.253906 297.574219 C 183.210938 297.191406 184.195312 296.882812 185.199219 296.648438 C 186.207031 296.417969 187.222656 296.265625 188.25 296.191406 C 189.28125 296.113281 190.308594 296.121094 191.335938 296.203125 C 192.367188 296.289062 193.382812 296.449219 194.386719 296.691406 C 195.390625 296.929688 196.367188 297.246094 197.324219 297.640625 C 198.277344 298.03125 199.195312 298.496094 200.078125 299.027344 C 200.964844 299.5625 201.800781 300.160156 202.589844 300.824219 C 203.382812 301.488281 204.117188 302.207031 204.796875 302.984375 C 205.480469 303.761719 206.097656 304.585938 206.648438 305.457031 C 207.203125 306.328125 207.6875 307.238281 208.097656 308.183594 C 208.894531 310.003906 209.695312 312.207031 211.605469 312.722656 C 212.609375 312.898438 213.589844 312.8125 214.546875 312.472656 L 235.242188 306.972656 C 247.636719 303.675781 261.230469 299.527344 267.929688 288.578125 C 272.902344 280.457031 272.90625 270.332031 272.347656 260.828125 C 270.980469 262.015625 269.585938 263.167969 268.167969 264.292969 C 266.753906 265.417969 265.3125 266.511719 263.847656 267.570312 C 262.382812 268.632812 260.894531 269.660156 259.386719 270.660156 C 257.875 271.65625 256.34375 272.617188 254.792969 273.546875 C 253.242188 274.476562 251.671875 275.375 250.082031 276.234375 C 248.492188 277.097656 246.882812 277.921875 245.257812 278.714844 C 243.628906 279.507812 241.988281 280.261719 240.328125 280.980469 C 238.667969 281.703125 236.996094 282.382812 235.304688 283.03125 C 233.617188 283.679688 231.914062 284.289062 230.199219 284.859375 C 228.484375 285.433594 226.757812 285.96875 225.019531 286.464844 C 223.28125 286.964844 221.53125 287.421875 219.773438 287.84375 C 218.015625 288.265625 216.246094 288.648438 214.472656 288.992188 C 212.695312 289.335938 210.914062 289.640625 209.125 289.90625 C 207.335938 290.175781 205.542969 290.402344 203.746094 290.589844 C 201.949219 290.777344 200.144531 290.925781 198.339844 291.035156 C 196.535156 291.148438 194.730469 291.21875 192.921875 291.25 C 191.113281 291.277344 189.304688 291.269531 187.5 291.222656 C 185.691406 291.175781 183.882812 291.089844 182.082031 290.960938 C 180.277344 290.835938 178.476562 290.667969 176.679688 290.464844 C 174.882812 290.261719 173.09375 290.015625 171.304688 289.734375 C 169.519531 289.449219 167.742188 289.128906 165.96875 288.769531 C 164.195312 288.40625 162.433594 288.007812 160.679688 287.570312 C 158.925781 287.132812 157.179688 286.660156 155.445312 286.144531 C 153.710938 285.632812 151.988281 285.082031 150.28125 284.492188 C 148.570312 283.902344 146.875 283.277344 145.191406 282.617188 C 143.507812 281.953125 141.839844 281.253906 140.1875 280.519531 C 138.535156 279.785156 136.898438 279.015625 135.28125 278.207031 C 133.660156 277.402344 132.0625 276.5625 130.476562 275.683594 C 128.894531 274.808594 127.332031 273.898438 125.789062 272.953125 C 124.246094 272.011719 122.726562 271.03125 121.226562 270.023438 C 119.726562 269.011719 118.25 267.96875 116.792969 266.894531 C 115.339844 265.820312 113.90625 264.714844 112.5 263.574219 " fill-opacity="1" fill-rule="nonzero"/><path fill="#ffa54d" d="M 110.117188 261.171875 C 106.527344 275.359375 111.824219 289.460938 123.238281 298.425781 C 136.578125 308.898438 153.949219 310.714844 170.320312 311.257812 C 170.480469 311.257812 170.582031 311.179688 170.621094 311.027344 C 175.214844 296.148438 194.316406 291.574219 204.6875 303.5 C 207.410156 306.65625 208.097656 313.097656 213.027344 313.117188 C 215.933594 313.117188 219.707031 311.421875 222.539062 310.671875 L 234.480469 307.515625 C 244.863281 304.75 256.222656 301.71875 264.078125 293.894531 C 272.90625 285.109375 273.261719 272.535156 272.609375 260.855469 C 272.605469 260.714844 272.539062 260.621094 272.410156 260.570312 C 272.28125 260.515625 272.167969 260.539062 272.070312 260.632812 C 250.105469 279.445312 221.832031 290.457031 192.871094 290.945312 C 163.910156 291.429688 135.296875 281.402344 112.703125 263.355469 C 112.386719 263.101562 111.933594 263.542969 112.253906 263.796875 C 154.621094 297.636719 215.039062 300.550781 260.234375 270.421875 C 262.585938 268.855469 264.882812 267.210938 267.125 265.484375 C 268.164062 264.675781 269.761719 262.773438 270.941406 262.414062 C 272.832031 261.839844 272.167969 263.941406 272.199219 265.621094 C 272.390625 272.964844 271.855469 280.652344 268.296875 287.242188 C 261.90625 299.085938 247.796875 303.269531 235.703125 306.511719 C 231.792969 307.558594 227.882812 308.589844 223.976562 309.628906 C 220.070312 310.671875 212.515625 314.15625 209.417969 310.335938 C 207.941406 308.519531 207.40625 305.917969 205.917969 303.972656 C 204.429688 302.074219 202.671875 300.472656 200.644531 299.171875 C 199.621094 298.515625 198.546875 297.953125 197.425781 297.488281 C 196.300781 297.023438 195.144531 296.664062 193.957031 296.40625 C 192.769531 296.152344 191.570312 296 190.355469 295.960938 C 189.140625 295.917969 187.933594 295.988281 186.730469 296.164062 C 185.527344 296.339844 184.351562 296.621094 183.199219 297.007812 C 182.046875 297.398438 180.941406 297.882812 179.875 298.472656 C 178.8125 299.058594 177.808594 299.734375 176.863281 300.5 C 175.921875 301.269531 175.054688 302.113281 174.261719 303.039062 C 173.472656 303.945312 172.761719 304.914062 172.136719 305.941406 C 171.582031 306.863281 171.089844 308.917969 170.359375 309.730469 C 168.359375 311.921875 160.441406 310.140625 157.742188 309.875 C 148.746094 308.984375 139.699219 307.117188 131.589844 302.988281 C 115.976562 295.015625 106.242188 279.003906 110.722656 261.320312 C 110.746094 261.234375 110.734375 261.152344 110.6875 261.074219 C 110.644531 260.996094 110.578125 260.945312 110.492188 260.921875 C 110.40625 260.898438 110.320312 260.910156 110.242188 260.953125 C 110.164062 260.996094 110.113281 261.0625 110.089844 261.152344 Z M 110.117188 261.171875 " fill-opacity="1" fill-rule="nonzero"/><path fill="#ffa54d" d="M 192.933594 298.117188 C 191.929688 297.804688 190.902344 297.609375 189.851562 297.53125 C 188.800781 297.457031 187.753906 297.503906 186.714844 297.671875 C 185.675781 297.835938 184.667969 298.121094 183.695312 298.523438 C 182.722656 298.921875 181.804688 299.429688 180.949219 300.042969 C 177.472656 302.570312 175.421875 306.605469 174.011719 310.664062 C 173.480469 311.988281 173.21875 313.359375 173.234375 314.78125 C 173.425781 316.320312 173.914062 317.757812 174.703125 319.089844 C 177.574219 324.648438 182.046875 330.34375 188.277344 330.796875 C 191.375 331.023438 194.410156 329.875 197.171875 328.453125 C 200.101562 326.945312 202.984375 324.960938 204.464844 322.019531 C 206.125 318.71875 205.726562 314.683594 204.289062 311.285156 C 202.851562 307.886719 200.503906 304.96875 198.125 302.128906 C 196.820312 300.542969 195.476562 298.925781 193.710938 297.882812 " fill-opacity="1" fill-rule="nonzero"/><path fill="#ffa54d" d="M 193.015625 297.816406 C 183.964844 295.402344 177.285156 301.226562 174.1875 309.363281 C 172.25 314.417969 173.355469 317.871094 176.257812 322.355469 C 178.382812 325.636719 181.152344 328.839844 184.871094 330.3125 C 191.699219 333.015625 202.277344 328.234375 205.058594 321.46875 C 208.503906 313.109375 200.523438 302.117188 193.886719 297.613281 C 193.550781 297.386719 193.257812 297.933594 193.570312 298.15625 C 199.300781 302.046875 205.835938 310.886719 205.230469 318.074219 C 204.523438 326.371094 192.519531 332.597656 185.125 329.691406 C 181.882812 328.429688 179.417969 325.847656 177.453125 323.042969 C 174.75 319.179688 173.039062 315.597656 174.339844 310.753906 C 176.632812 302.394531 183.933594 296.054688 192.839844 298.433594 C 192.925781 298.457031 193.007812 298.445312 193.085938 298.398438 C 193.164062 298.355469 193.214844 298.289062 193.238281 298.199219 C 193.257812 298.113281 193.25 298.03125 193.203125 297.953125 C 193.15625 297.875 193.089844 297.824219 193.003906 297.800781 Z M 193.015625 297.816406 " fill-opacity="1" fill-rule="nonzero"/><path fill="#ffa54d" d="M 87.371094 211.085938 C 91.855469 205.402344 99.4375 203.003906 106.660156 202.699219 C 116.605469 202.285156 126.367188 205.226562 136.308594 206.117188 C 146.25 207.007812 159.847656 206.148438 166.269531 198.539062 C 171.574219 192.257812 172.472656 183.414062 172.414062 175.175781 C 172.320312 161.199219 169.3125 146.304688 171.234375 132.460938 C 172.292969 124.882812 172.0625 117.433594 175.480469 110.554688 C 177.15625 107.164062 180.261719 103.652344 183.863281 102.492188 C 187.984375 101.164062 192.585938 103.53125 195.117188 107.042969 C 197.644531 110.554688 198.546875 114.960938 199.1875 119.25 C 202.175781 139.257812 201.035156 155.503906 204.1875 175.453125 C 205.820312 185.828125 206.585938 200.15625 214.910156 206.535156 C 221.640625 211.6875 233.691406 213.746094 241.5 210.460938 C 251.832031 206.117188 259.507812 194.597656 270.710938 194.945312 C 276.425781 195.117188 281.667969 198.632812 285.0625 203.238281 C 288.457031 207.839844 290.230469 213.449219 291.441406 219.023438 C 293.144531 214.71875 294.429688 210.292969 295.300781 205.746094 C 296.171875 201.199219 296.613281 196.609375 296.621094 191.980469 C 296.628906 187.351562 296.207031 182.761719 295.351562 178.210938 C 294.496094 173.660156 293.222656 169.230469 291.535156 164.917969 C 288.660156 157.675781 284.558594 150.636719 284.269531 142.816406 C 284.015625 136.09375 286.648438 129.652344 288.25 123.121094 C 292.753906 104.808594 289.214844 85.605469 285.667969 67.097656 C 283.777344 57.234375 281.800781 47.136719 276.648438 38.523438 C 266.601562 55.707031 255.84375 72.394531 244.375 88.585938 C 241.882812 92.085938 238.90625 95.875 234.648438 96.503906 C 230.894531 97.074219 227.324219 95 223.863281 93.441406 C 205.3125 85.09375 183.863281 90.574219 163.96875 94.8125 C 157.734375 96.136719 151.085938 97.300781 145.136719 95.03125 C 141.761719 93.769531 138.878906 91.441406 136.175781 89.046875 C 132.390625 85.6875 128.839844 82.097656 125.523438 78.277344 C 122.207031 74.453125 119.148438 70.433594 116.355469 66.210938 C 113.5625 61.992188 111.058594 57.609375 108.835938 53.058594 C 106.613281 48.511719 104.695312 43.839844 103.082031 39.039062 C 101.089844 41.851562 99.3125 44.796875 97.742188 47.863281 C 96.175781 50.933594 94.832031 54.101562 93.71875 57.363281 C 92.605469 60.625 91.730469 63.953125 91.09375 67.339844 C 90.457031 70.730469 90.0625 74.148438 89.917969 77.589844 C 89.355469 91.425781 92.808594 105.082031 96.226562 118.503906 C 93.570312 113.671875 92.171875 108.492188 92.039062 102.976562 C 91.535156 106.269531 91.425781 109.570312 91.703125 112.886719 C 91.980469 116.203125 92.640625 119.441406 93.683594 122.605469 C 95.109375 126.902344 97.242188 131.027344 97.808594 135.523438 C 98.773438 143.164062 95.121094 150.523438 92.359375 157.714844 C 90.738281 161.949219 89.40625 166.277344 88.355469 170.691406 C 87.304688 175.101562 86.550781 179.566406 86.089844 184.078125 C 85.628906 188.59375 85.464844 193.117188 85.597656 197.652344 C 85.734375 202.183594 86.167969 206.691406 86.894531 211.167969 " fill-opacity="1" fill-rule="nonzero"/><path fill="#ffa54d" d="M 87.597656 211.3125 C 98.566406 198.417969 117.238281 203.855469 131.507812 205.871094 C 141.296875 207.246094 153 207.765625 161.855469 202.550781 C 171.277344 197.011719 172.753906 185.144531 172.699219 175.195312 C 172.617188 160.625 169.828125 146.296875 171.621094 131.722656 C 172.570312 123.921875 172.425781 115.234375 177.039062 108.484375 C 180.039062 104.0625 185.15625 100.832031 190.429688 103.496094 C 194.390625 105.496094 196.554688 109.457031 197.695312 113.597656 C 201.53125 127.429688 200.851562 142.765625 201.839844 156.996094 C 202.660156 168.921875 203.773438 181.621094 206.855469 193.195312 C 209.519531 203.230469 215.613281 209.519531 225.894531 211.6875 C 231.035156 212.773438 236.675781 212.835938 241.59375 210.808594 C 247.273438 208.460938 251.894531 204.109375 256.871094 200.585938 C 263.308594 196.03125 270.597656 193.410156 278.042969 197.460938 C 285.996094 201.792969 289.234375 210.851562 291.113281 219.183594 C 291.1875 219.511719 291.617188 219.449219 291.742188 219.183594 C 293.078125 215.769531 294.160156 212.28125 294.984375 208.710938 C 295.808594 205.140625 296.367188 201.527344 296.664062 197.875 C 296.960938 194.222656 296.988281 190.566406 296.746094 186.910156 C 296.507812 183.253906 296.003906 179.636719 295.230469 176.050781 C 293.535156 168.273438 290.066406 161.433594 287.234375 154.070312 C 283.828125 145.230469 284.550781 137.53125 287.113281 128.566406 C 291.460938 113.328125 291.167969 98.253906 288.753906 82.664062 C 286.464844 67.90625 284.488281 51.585938 276.917969 38.457031 C 276.890625 38.414062 276.851562 38.375 276.804688 38.347656 C 276.753906 38.324219 276.703125 38.308594 276.648438 38.308594 C 276.59375 38.308594 276.542969 38.324219 276.492188 38.347656 C 276.445312 38.375 276.40625 38.414062 276.378906 38.457031 C 268.210938 52.316406 259.59375 65.890625 250.53125 79.183594 C 246.648438 84.867188 241.277344 96.320312 233.25 96.300781 C 229.464844 96.300781 226.015625 93.972656 222.621094 92.582031 C 219.085938 91.152344 215.433594 90.140625 211.664062 89.558594 C 198.101562 87.40625 184.296875 90.191406 171.046875 93 C 163.253906 94.660156 154.539062 97.554688 146.609375 95.222656 C 139.417969 93.113281 133.476562 86.496094 128.503906 81.152344 C 122.878906 75.082031 117.949219 68.488281 113.714844 61.371094 C 109.480469 54.257812 106.039062 46.777344 103.386719 38.933594 C 103.34375 38.800781 103.257812 38.726562 103.121094 38.707031 C 102.984375 38.691406 102.878906 38.738281 102.804688 38.855469 C 100.667969 41.910156 98.773438 45.109375 97.125 48.453125 C 95.476562 51.796875 94.089844 55.246094 92.964844 58.800781 C 91.84375 62.355469 90.996094 65.976562 90.421875 69.660156 C 89.851562 73.34375 89.5625 77.050781 89.558594 80.78125 C 89.558594 88.792969 90.851562 96.757812 92.546875 104.570312 C 93.449219 108.730469 94.574219 113.117188 95.703125 117.035156 C 94.441406 112.511719 92.617188 108.125 92.382812 102.976562 C 92.382812 102.640625 91.816406 102.523438 91.753906 102.894531 C 90.492188 112.046875 92.382812 119.824219 95.539062 128.363281 C 97.539062 133.800781 98.21875 138.914062 96.800781 144.617188 C 95.675781 149.105469 93.742188 153.324219 92.101562 157.632812 C 90.484375 161.886719 89.152344 166.222656 88.105469 170.652344 C 87.054688 175.078125 86.296875 179.554688 85.832031 184.078125 C 85.367188 188.605469 85.195312 193.140625 85.320312 197.691406 C 85.445312 202.238281 85.867188 206.757812 86.582031 211.25 C 86.644531 211.648438 87.253906 211.480469 87.210938 211.082031 C 85.375 199.609375 85.449219 188.148438 87.433594 176.703125 C 89.28125 166.214844 93.703125 156.96875 96.789062 146.890625 C 97.917969 143.195312 98.605469 139.3125 98.113281 135.453125 C 97.4375 130.175781 94.710938 125.433594 93.335938 120.34375 C 92.472656 117.160156 91.992188 113.917969 91.890625 110.617188 C 91.847656 109.355469 91.972656 108.09375 91.957031 106.828125 C 91.957031 105.375 91.589844 103.46875 91.921875 105.976562 C 92.503906 110.464844 93.847656 114.710938 95.953125 118.714844 C 96.125 119.035156 96.617188 118.808594 96.535156 118.46875 C 92.195312 101.390625 88.03125 83.945312 91.628906 66.371094 C 93.238281 58.410156 96.113281 50.9375 100.242188 43.945312 C 100.71875 43.15625 101.964844 40.257812 102.878906 40.371094 C 103.605469 40.46875 104.617188 44.191406 104.90625 44.929688 C 106.167969 48.160156 107.585938 51.332031 109.164062 54.441406 C 112.328125 60.734375 116.027344 66.695312 120.265625 72.316406 C 124.507812 77.941406 129.214844 83.140625 134.394531 87.910156 C 138.96875 92.085938 143.730469 95.828125 150.078125 96.503906 C 157.382812 97.289062 164.863281 94.945312 171.933594 93.441406 C 187.425781 90.144531 204.328125 86.847656 219.761719 92.179688 C 225.09375 94.015625 231.148438 98.703125 237.007812 96.152344 C 242.523438 93.757812 246.035156 86.8125 249.253906 82.152344 C 254.128906 75.089844 258.871094 67.933594 263.476562 60.679688 C 265.644531 57.292969 267.773438 53.882812 269.867188 50.457031 C 270.882812 48.796875 275.3125 39.496094 277.066406 39.96875 C 277.867188 40.1875 279.273438 44.527344 279.5 45.082031 C 280.316406 47.050781 281.03125 49.058594 281.644531 51.101562 C 282.761719 54.828125 283.605469 58.550781 284.371094 62.316406 C 286.066406 70.652344 287.675781 79.039062 288.785156 87.472656 C 289.894531 95.910156 290.46875 104.636719 289.605469 113.207031 C 288.742188 121.777344 285.269531 129.738281 284.167969 138.246094 C 283.308594 144.894531 285.175781 150.957031 287.75 157.019531 C 291.019531 164.703125 294.113281 172.175781 295.375 180.492188 C 296.730469 189.167969 296.546875 197.816406 294.820312 206.425781 C 294.433594 208.332031 293.976562 210.226562 293.445312 212.109375 C 293.21875 212.898438 292.367188 217.332031 291.609375 217.648438 C 291.648438 217.648438 289.121094 210.183594 288.757812 209.332031 C 284.382812 199.042969 274.132812 191.449219 262.898438 196.277344 C 257.125 198.765625 252.527344 203.292969 247.390625 206.792969 C 241.164062 211.035156 234.679688 212.550781 227.207031 211.300781 C 220.199219 210.132812 213.582031 206.792969 210.175781 200.332031 C 207.113281 194.566406 206.195312 187.835938 205.296875 181.453125 C 203.109375 165.90625 202.296875 150.457031 201.128906 134.816406 C 200.59375 127.585938 200.238281 119.773438 198.113281 112.796875 C 196.648438 108.015625 193.601562 103.363281 188.449219 102.113281 C 183.464844 100.898438 179.15625 104.253906 176.464844 108.167969 C 172.507812 113.933594 172.046875 121.214844 171.378906 127.953125 C 170.546875 136.160156 170.035156 144.003906 170.578125 152.25 C 171.101562 160.113281 172.035156 167.964844 172.035156 175.851562 C 172.035156 183.738281 171.203125 192.699219 165.625 198.714844 C 160.695312 204.035156 152.941406 205.597656 145.988281 205.992188 C 131.480469 206.824219 117.167969 200.558594 102.703125 202.765625 C 96.671875 203.679688 91.148438 206.15625 87.148438 210.867188 C 86.882812 211.175781 87.332031 211.625 87.597656 211.3125 Z M 87.597656 211.3125 " fill-opacity="1" fill-rule="nonzero"/><path fill="#ffa54d" d="M 103.371094 39.3125 C 101.640625 46.714844 100.441406 54.203125 99.765625 61.777344 C 99.089844 69.347656 98.949219 76.929688 99.34375 84.523438 C 99.738281 92.117188 100.660156 99.644531 102.117188 107.105469 C 103.570312 114.570312 105.542969 121.890625 108.027344 129.078125 L 99.695312 134.824219 C 99.375 135.085938 99.007812 135.253906 98.597656 135.320312 C 97.589844 135.386719 97.015625 134.222656 96.707031 133.257812 C 89.136719 108.078125 89.609375 80.761719 96.429688 55.355469 C 97.839844 50.089844 99.582031 44.75 103.078125 40.550781 " fill-opacity="1" fill-rule="nonzero"/><path fill="#ffa54d" d="M 103.0625 39.230469 C 100.359375 50.828125 98.945312 62.585938 98.824219 74.496094 C 98.707031 86.40625 99.878906 98.1875 102.351562 109.839844 C 103.203125 113.863281 104.210938 117.859375 105.371094 121.808594 C 105.859375 123.457031 107.265625 126.015625 107.234375 127.699219 C 107.1875 129.96875 105.296875 130.578125 103.707031 131.679688 C 102.800781 132.308594 100.589844 134.5 99.539062 134.550781 C 96.527344 134.695312 96.28125 130.667969 95.753906 128.710938 C 94.714844 124.722656 93.871094 120.695312 93.230469 116.625 C 91.847656 107.976562 91.289062 99.277344 91.558594 90.523438 C 91.820312 81.753906 92.839844 73.074219 94.617188 64.480469 C 96.296875 56.324219 98.113281 47.476562 103.324219 40.769531 C 103.570312 40.453125 103.125 40.003906 102.875 40.320312 C 97.304688 47.515625 95.414062 57.082031 93.691406 65.832031 C 91.632812 76.285156 90.695312 86.832031 90.882812 97.484375 C 91.0625 107.855469 92.421875 118.070312 94.964844 128.128906 C 95.414062 129.878906 95.804688 135.378906 98.507812 135.625 C 99.398438 135.707031 100.339844 134.722656 101.03125 134.273438 C 103.460938 132.714844 105.800781 130.984375 108.171875 129.347656 C 108.316406 129.265625 108.363281 129.144531 108.320312 128.988281 C 105.859375 121.8125 103.914062 114.5 102.472656 107.050781 C 101.035156 99.605469 100.117188 92.09375 99.726562 84.515625 C 99.332031 76.941406 99.46875 69.375 100.128906 61.816406 C 100.789062 54.261719 101.972656 46.785156 103.675781 39.394531 C 103.765625 39 103.160156 38.832031 103.042969 39.230469 Z M 103.0625 39.230469 " fill-opacity="1" fill-rule="nonzero"/><path fill="#ffa54d" d="M 276.148438 39.3125 C 277.878906 46.714844 279.082031 54.203125 279.757812 61.777344 C 280.429688 69.347656 280.570312 76.933594 280.175781 84.523438 C 279.78125 92.117188 278.859375 99.644531 277.402344 107.105469 C 275.945312 114.570312 273.976562 121.894531 271.488281 129.078125 L 279.828125 134.824219 C 280.148438 135.085938 280.515625 135.253906 280.925781 135.320312 C 281.929688 135.386719 282.507812 134.222656 282.816406 133.257812 C 290.425781 108.078125 289.921875 80.761719 283.101562 55.355469 C 281.6875 50.089844 279.949219 44.75 276.453125 40.550781 " fill-opacity="1" fill-rule="nonzero"/><path fill="#ffa54d" d="M 275.820312 39.394531 C 277.523438 46.785156 278.707031 54.261719 279.367188 61.816406 C 280.027344 69.375 280.160156 76.941406 279.765625 84.519531 C 279.371094 92.09375 278.453125 99.605469 277.011719 107.054688 C 275.570312 114.5 273.621094 121.8125 271.160156 128.988281 C 271.125 129.140625 271.171875 129.261719 271.304688 129.347656 L 277.859375 133.863281 C 278.566406 134.355469 279.984375 135.757812 281.011719 135.625 C 283.585938 135.234375 283.890625 130.699219 284.371094 128.875 C 287.035156 118.582031 288.460938 108.117188 288.644531 97.484375 C 288.832031 87.09375 287.941406 76.796875 285.984375 66.589844 C 284.273438 57.613281 282.394531 47.703125 276.660156 40.320312 C 276.414062 40.003906 275.972656 40.453125 276.21875 40.769531 C 281.429688 47.476562 283.246094 56.324219 284.925781 64.480469 C 286.703125 73.074219 287.722656 81.753906 287.984375 90.523438 C 288.25 99.277344 287.695312 107.976562 286.3125 116.625 C 285.65625 120.691406 284.816406 124.71875 283.789062 128.710938 C 283.273438 130.667969 283.03125 134.695312 280.003906 134.550781 C 278.957031 134.5 276.75 132.304688 275.839844 131.679688 C 274.246094 130.578125 272.359375 129.96875 272.316406 127.699219 C 272.28125 126.015625 273.691406 123.457031 274.175781 121.808594 C 275.335938 117.859375 276.34375 113.863281 277.195312 109.839844 C 278.796875 102.25 279.847656 94.582031 280.351562 86.835938 C 281.390625 70.773438 280.09375 54.90625 276.453125 39.230469 C 276.363281 38.832031 275.753906 38.996094 275.820312 39.394531 Z M 275.820312 39.394531 " fill-opacity="1" fill-rule="nonzero"/><path fill="#ffa54d" d="M 174.648438 253.890625 C 174.078125 255.71875 174.761719 257.679688 175.53125 259.445312 C 176.917969 262.632812 178.601562 265.652344 180.578125 268.507812 C 182.992188 271.980469 186.46875 275.453125 190.667969 275.15625 C 194.585938 274.886719 197.488281 271.457031 199.5 268.089844 C 201.511719 264.738281 203.128906 261.207031 204.359375 257.496094 C 204.667969 256.789062 204.730469 256.0625 204.542969 255.316406 C 204.277344 254.777344 203.898438 254.339844 203.40625 254.003906 L 192.367188 244.933594 C 191.816406 244.417969 191.183594 244.03125 190.472656 243.773438 C 188.230469 243.140625 186.328125 245.382812 184.796875 247.164062 C 183.210938 249.007812 181.390625 250.578125 179.332031 251.871094 C 177.269531 253.160156 175.066406 254.117188 172.71875 254.742188 " fill-opacity="1" fill-rule="nonzero"/><path fill="#ffa54d" d="M 174.34375 253.800781 C 173.714844 258.007812 176.238281 262.046875 178.324219 265.546875 C 180.414062 269.042969 183.042969 273.125 186.96875 274.777344 C 194.535156 278.011719 199.546875 269.386719 202.226562 263.746094 C 203.347656 261.378906 205.933594 257.355469 204.625 254.796875 C 203.785156 253.164062 201.375 251.886719 199.992188 250.757812 C 197.566406 248.753906 195.191406 246.539062 192.632812 244.707031 C 190.683594 243.316406 189.28125 242.875 187.1875 244.339844 C 185.09375 245.804688 183.761719 248.128906 181.832031 249.722656 C 179.121094 251.945312 176.078125 253.527344 172.699219 254.464844 C 172.609375 254.484375 172.542969 254.535156 172.5 254.613281 C 172.453125 254.691406 172.441406 254.773438 172.464844 254.863281 C 172.488281 254.949219 172.539062 255.015625 172.613281 255.0625 C 172.691406 255.105469 172.773438 255.117188 172.863281 255.09375 C 175.214844 254.410156 177.429688 253.414062 179.507812 252.109375 C 181.582031 250.804688 183.441406 249.242188 185.082031 247.417969 C 185.597656 246.785156 186.148438 246.152344 186.722656 245.605469 C 189.429688 243.714844 191.660156 243.910156 193.414062 246.191406 C 194.644531 247.1875 195.867188 248.207031 197.089844 249.210938 C 199.957031 251.558594 204.660156 253.890625 203.859375 258.125 C 202.742188 264.085938 196.863281 274.816406 190.0625 274.664062 C 185.410156 274.570312 182.417969 270.722656 180.046875 267.144531 C 177.675781 263.5625 174.289062 258.4375 174.949219 253.996094 C 175.011719 253.597656 174.402344 253.429688 174.320312 253.824219 Z M 174.34375 253.800781 " fill-opacity="1" fill-rule="nonzero"/><path fill="#3f1e1d" d="M 155.117188 190.171875 C 159.324219 192.652344 163.140625 186.105469 158.941406 183.628906 C 153.046875 180.164062 145.695312 180.265625 139.09375 181.1875 C 132.332031 182.132812 126.296875 185.09375 122.613281 191.011719 C 120.027344 195.160156 126.574219 198.976562 129.148438 194.839844 C 131.820312 190.546875 136.71875 188.929688 141.511719 188.484375 C 146.007812 188.070312 151.113281 187.816406 155.117188 190.171875 Z M 155.117188 190.171875 " fill-opacity="1" fill-rule="nonzero"/><path fill="#3f1e1d" d="M 230.625 169.421875 C 224.867188 172.769531 223.617188 179.621094 223.8125 185.785156 C 223.8125 186.503906 223.894531 187.25 223.988281 188.007812 C 224.082031 191.21875 224.804688 194.277344 226.164062 197.1875 C 228.542969 202.175781 233.351562 206.425781 239.203125 204.910156 C 245.511719 203.277344 248.351562 196.921875 249.246094 191.019531 C 250.140625 185.113281 250.507812 177.757812 246.722656 172.707031 C 246.269531 172.109375 245.765625 171.554688 245.214844 171.050781 C 244.660156 170.542969 244.066406 170.089844 243.433594 169.691406 C 242.796875 169.292969 242.132812 168.953125 241.4375 168.675781 C 240.742188 168.394531 240.027344 168.179688 239.292969 168.03125 C 238.558594 167.882812 237.816406 167.796875 237.066406 167.78125 C 236.316406 167.765625 235.570312 167.816406 234.832031 167.9375 C 234.089844 168.054688 233.367188 168.238281 232.660156 168.488281 C 231.953125 168.738281 231.277344 169.050781 230.625 169.421875 Z M 230.625 169.421875 " fill-opacity="1" fill-rule="nonzero"/><g clip-path="url(#id1)"><path fill="#3f1e1d" d="M 286.3125 140.613281 C 286.597656 140.277344 286.824219 139.902344 286.992188 139.496094 C 294.101562 122.230469 294.644531 103.292969 293.421875 84.898438 C 292.160156 65.585938 288.886719 47.222656 279.375 30.148438 C 277.671875 27.09375 273.53125 28.148438 272.433594 31.050781 C 268.109375 42.695312 262.703125 53.8125 256.210938 64.398438 C 250.007812 74.503906 243.019531 84.65625 234.238281 92.710938 C 227.140625 90.03125 219.84375 88.070312 212.359375 86.828125 C 204.875 85.589844 197.339844 85.089844 189.753906 85.332031 C 182.175781 85.09375 174.640625 85.59375 167.160156 86.835938 C 159.675781 88.078125 152.386719 90.039062 145.289062 92.714844 C 136.507812 84.664062 129.519531 74.515625 123.320312 64.40625 C 116.824219 53.816406 111.417969 42.699219 107.09375 31.050781 C 106.015625 28.152344 101.871094 27.097656 100.15625 30.148438 C 90.664062 47.25 87.40625 65.59375 86.125 84.898438 C 84.902344 103.292969 85.445312 122.230469 92.554688 139.496094 C 92.730469 139.921875 92.972656 140.304688 93.273438 140.652344 C 78.757812 170.386719 76.191406 206.785156 90.007812 237.210938 C 93.550781 244.921875 98.085938 252 103.613281 258.4375 C 103.207031 267.035156 102.980469 275.945312 105.863281 284.175781 C 108.746094 292.402344 114.273438 297.984375 121.339844 302.726562 C 128.347656 307.355469 135.828125 311.007812 143.785156 313.683594 C 151.746094 316.359375 159.910156 317.96875 168.289062 318.515625 C 168.46875 319.824219 168.765625 321.109375 169.179688 322.367188 C 169.589844 323.625 170.109375 324.835938 170.738281 326 C 171.367188 327.164062 172.09375 328.265625 172.921875 329.296875 C 173.746094 330.332031 174.660156 331.28125 175.65625 332.152344 C 176.652344 333.019531 177.71875 333.792969 178.855469 334.472656 C 179.992188 335.148438 181.175781 335.722656 182.414062 336.183594 C 183.652344 336.648438 184.921875 337 186.222656 337.234375 C 187.523438 337.472656 188.835938 337.589844 190.160156 337.589844 C 191.480469 337.589844 192.792969 337.472656 194.09375 337.234375 C 195.394531 337 196.664062 336.648438 197.902344 336.183594 C 199.140625 335.722656 200.328125 335.148438 201.460938 334.472656 C 202.597656 333.792969 203.664062 333.019531 204.660156 332.152344 C 205.660156 331.28125 206.570312 330.332031 207.394531 329.296875 C 208.222656 328.265625 208.949219 327.164062 209.578125 326 C 210.207031 324.835938 210.726562 323.625 211.140625 322.367188 C 211.550781 321.109375 211.847656 319.824219 212.027344 318.515625 C 228.863281 317.390625 245.335938 312.105469 259.394531 302.675781 C 266.257812 298.074219 271.710938 292.625 274.648438 284.761719 C 277.898438 276.058594 277.53125 266.550781 277.089844 257.429688 C 277.078125 257.273438 277.054688 257.113281 277.019531 256.957031 C 291.460938 239.015625 298.160156 216.800781 298.46875 193.46875 C 298.5625 184.300781 297.582031 175.25 295.527344 166.316406 C 293.472656 157.382812 290.402344 148.816406 286.3125 140.613281 Z M 168.585938 310.980469 C 161.3125 310.488281 154.210938 309.121094 147.273438 306.882812 C 140.339844 304.644531 133.773438 301.601562 127.582031 297.75 C 121.078125 293.683594 115.425781 289.019531 112.9375 281.527344 C 111.28125 276.546875 110.886719 271.355469 110.910156 266.144531 C 118.183594 273.023438 126.304688 278.675781 135.277344 283.101562 C 150.3125 290.488281 166.75 293.9375 183.371094 294.621094 C 181.53125 295.21875 179.800781 296.042969 178.179688 297.097656 C 176.558594 298.148438 175.097656 299.390625 173.800781 300.828125 C 172.503906 302.261719 171.414062 303.839844 170.527344 305.5625 C 169.644531 307.285156 168.996094 309.089844 168.585938 310.980469 Z M 190.160156 330.152344 C 189.207031 330.152344 188.261719 330.058594 187.328125 329.875 C 186.394531 329.6875 185.488281 329.414062 184.605469 329.046875 C 183.726562 328.683594 182.890625 328.234375 182.097656 327.707031 C 181.304688 327.175781 180.574219 326.574219 179.898438 325.898438 C 179.226562 325.226562 178.625 324.492188 178.09375 323.699219 C 177.566406 322.90625 177.121094 322.066406 176.753906 321.1875 C 176.390625 320.304688 176.113281 319.398438 175.929688 318.460938 C 175.742188 317.527344 175.648438 316.582031 175.648438 315.628906 C 175.648438 314.675781 175.742188 313.730469 175.929688 312.796875 C 176.113281 311.859375 176.390625 310.953125 176.753906 310.070312 C 177.121094 309.191406 177.566406 308.351562 178.09375 307.558594 C 178.625 306.765625 179.226562 306.035156 179.898438 305.359375 C 180.574219 304.683594 181.304688 304.082031 182.097656 303.550781 C 182.890625 303.023438 183.726562 302.574219 184.605469 302.210938 C 185.488281 301.84375 186.394531 301.570312 187.328125 301.382812 C 188.261719 301.199219 189.207031 301.105469 190.160156 301.105469 C 191.113281 301.105469 192.054688 301.199219 192.988281 301.382812 C 193.921875 301.570312 194.832031 301.84375 195.710938 302.210938 C 196.589844 302.574219 197.425781 303.023438 198.21875 303.550781 C 199.011719 304.082031 199.746094 304.683594 200.417969 305.359375 C 201.089844 306.035156 201.691406 306.765625 202.222656 307.558594 C 202.75 308.351562 203.199219 309.191406 203.5625 310.070312 C 203.925781 310.953125 204.203125 311.859375 204.386719 312.796875 C 204.574219 313.730469 204.667969 314.675781 204.667969 315.628906 C 204.667969 316.582031 204.574219 317.527344 204.386719 318.460938 C 204.203125 319.398438 203.925781 320.304688 203.5625 321.1875 C 203.199219 322.066406 202.75 322.90625 202.222656 323.699219 C 201.691406 324.492188 201.089844 325.226562 200.417969 325.898438 C 199.746094 326.574219 199.011719 327.175781 198.21875 327.707031 C 197.425781 328.234375 196.589844 328.683594 195.710938 329.046875 C 194.832031 329.414062 193.921875 329.6875 192.988281 329.875 C 192.054688 330.058594 191.113281 330.152344 190.160156 330.152344 Z M 268.011719 280.859375 C 265.570312 288.691406 259.902344 293.535156 253.152344 297.75 C 246.902344 301.636719 240.269531 304.703125 233.265625 306.945312 C 226.257812 309.191406 219.082031 310.546875 211.738281 311.011719 C 211.324219 309.109375 210.671875 307.289062 209.777344 305.558594 C 208.882812 303.824219 207.78125 302.238281 206.46875 300.796875 C 205.160156 299.355469 203.683594 298.109375 202.042969 297.058594 C 200.40625 296.007812 198.65625 295.183594 196.800781 294.59375 C 223.851562 293.261719 250.199219 284.269531 269.808594 264.992188 C 269.90625 270.332031 269.613281 275.707031 268.011719 280.859375 Z M 240.886719 276.34375 C 226.140625 283.675781 209.828125 286.746094 193.476562 287.128906 L 188.007812 287.128906 C 160.152344 286.730469 132.800781 278.144531 113.085938 257.558594 C 96.578125 240.320312 89.117188 217.894531 88.65625 194.125 C 88.222656 171.296875 95.128906 149.390625 107.820312 130.496094 C 110.550781 126.4375 98.988281 130.238281 97.886719 132.070312 C 93.066406 117.40625 92.660156 101.835938 93.601562 86.402344 C 94.5625 70.664062 96.804688 55.566406 103.0625 41.324219 C 106.945312 50.644531 111.515625 59.613281 116.777344 68.226562 C 122.746094 77.953125 129.476562 87.800781 137.65625 95.90625 C 132.722656 98.183594 123.058594 112.953125 127.167969 110.308594 C 131.5 107.5 136.007812 105.015625 140.695312 102.851562 C 145.382812 100.6875 150.199219 98.867188 155.144531 97.390625 C 160.089844 95.914062 165.113281 94.796875 170.21875 94.039062 C 175.324219 93.28125 180.457031 92.886719 185.617188 92.859375 C 186.050781 92.996094 186.496094 93.046875 186.949219 93.019531 C 187.894531 92.960938 188.839844 92.941406 189.792969 92.910156 C 190.746094 92.878906 191.683594 92.960938 192.636719 93.019531 C 193.089844 93.046875 193.535156 92.996094 193.96875 92.859375 C 199.128906 92.886719 204.257812 93.28125 209.363281 94.042969 C 214.464844 94.800781 219.488281 95.917969 224.433594 97.394531 C 229.378906 98.871094 234.191406 100.691406 238.875 102.855469 C 243.5625 105.015625 248.070312 107.503906 252.398438 110.308594 C 256.507812 112.960938 246.84375 98.183594 241.910156 95.90625 C 250.109375 87.816406 256.820312 77.953125 262.789062 68.226562 C 268.03125 59.613281 272.585938 50.652344 276.453125 41.339844 C 282.714844 55.578125 284.960938 70.683594 285.914062 86.414062 C 286.855469 101.835938 286.449219 117.398438 281.632812 132.089844 C 280.539062 130.269531 268.964844 126.460938 271.695312 130.523438 C 283.152344 147.574219 290.058594 167.1875 290.804688 187.796875 C 291.363281 203.15625 289.125 219.859375 282.710938 233.953125 C 274.359375 252.375 258.871094 267.390625 240.886719 276.34375 Z M 240.886719 276.34375 " fill-opacity="1" fill-rule="nonzero"/></g><path fill="#3f1e1d" d="M 229.660156 236.695312 C 229.445312 245.226562 219.527344 250.679688 211.914062 250.71875 C 204.132812 250.761719 197.375 246.019531 193.414062 239.578125 C 197.351562 237.683594 200.882812 234.824219 202.441406 230.644531 C 205.058594 223.632812 199.285156 220.621094 193.269531 219.964844 C 188.285156 219.421875 177.992188 218.960938 176.1875 225.195312 C 174.671875 230.421875 180.527344 235.519531 184.386719 239.136719 C 180.464844 245.800781 173.582031 250.761719 165.625 250.71875 C 158.011719 250.679688 148.097656 245.226562 147.882812 236.695312 C 147.757812 231.824219 140.1875 231.804688 140.3125 236.695312 C 140.609375 248.578125 152.140625 257.070312 163.203125 258.164062 C 165.382812 258.382812 167.550781 258.316406 169.714844 257.976562 C 172.96875 266.851562 178.804688 279.355469 189.476562 279.78125 C 200.625 280.226562 207.449219 267.402344 210.015625 258.226562 C 211.460938 258.328125 212.902344 258.308594 214.34375 258.164062 C 225.40625 257.078125 236.933594 248.589844 237.234375 236.695312 C 237.34375 231.824219 229.773438 231.824219 229.660156 236.695312 Z M 189.402344 272.152344 C 182.953125 271.347656 179.023438 261.472656 176.96875 255.777344 C 181.703125 253.574219 185.636719 250.386719 188.769531 246.210938 C 190.535156 248.566406 192.597656 250.625 194.949219 252.394531 C 197.300781 254.160156 199.851562 255.566406 202.605469 256.605469 C 200.972656 262.179688 196.441406 273.035156 189.402344 272.152344 Z M 189.402344 272.152344 " fill-opacity="1" fill-rule="nonzero"/></svg>