<svg xmlns="http://www.w3.org/2000/svg" xmlns:xlink="http://www.w3.org/1999/xlink" width="500" zoomAndPan="magnify" viewBox="0 0 375 374.999991" height="500" preserveAspectRatio="xMidYMid meet" version="1.0"><defs><clipPath id="id1"><path d="M 151 47.089844 L 268.40625 47.089844 L 268.40625 248 L 151 248 Z M 151 47.089844 " clip-rule="nonzero"/></clipPath><clipPath id="id2"><path d="M 88.671875 110 L 225.777344 110 L 225.777344 343.332031 L 88.671875 343.332031 Z M 88.671875 110 " clip-rule="nonzero"/></clipPath></defs><path fill="#ffa743" d="M 229.699219 203.648438 C 229.898438 205.734375 230.710938 207.933594 229.542969 209.59375 C 228.765625 210.699219 226.417969 210.449219 224.753906 211.714844 C 222.820312 213.1875 221.558594 216.152344 220.660156 217.070312 C 220.121094 217.621094 218.628906 219.078125 216.816406 220.613281 C 214.019531 222.988281 211.644531 225.054688 209.644531 224.78125 C 205.945312 224.269531 207.195312 222.628906 206.132812 222.179688 C 204.84375 221.640625 201.066406 223.300781 200.53125 222.226562 C 199.429688 220.007812 202.539062 220.136719 198.09375 214.613281 C 196.777344 212.972656 195.851562 207.476562 198.71875 206.136719 C 204.796875 203.296875 205.21875 203.859375 204.492188 197.617188 C 203.730469 191.125 209.726562 194.363281 211.777344 187.75 C 212.144531 186.566406 212.832031 183.582031 211.5625 182.796875 C 208.726562 182.796875 208.117188 176.664062 213.398438 176.664062 C 216.472656 176.664062 221.722656 175.410156 221.707031 171.441406 C 221.699219 168.976562 226.628906 167.519531 227.566406 169.773438 C 230.484375 176.761719 221.011719 173.871094 227.902344 180.328125 C 229.6875 182.003906 231.089844 185.539062 229.226562 187.542969 C 226.242188 190.753906 232.140625 193.75 230.679688 198.945312 C 230.203125 200.632812 229.476562 201.328125 229.699219 203.648438 " fill-opacity="1" fill-rule="evenodd"/><path fill="#ffa743" d="M 224.28125 145.871094 C 222.238281 142.3125 227.746094 145.714844 227.746094 141.277344 C 227.746094 137.285156 222.527344 138.792969 222.457031 139.828125 C 222.109375 145.148438 216.757812 140.691406 214.25 144.871094 C 212.792969 147.296875 215.453125 151.617188 219 149.320312 C 223.667969 146.304688 221.59375 149.589844 225.386719 149.441406 C 226.46875 149.402344 224.898438 146.941406 224.28125 145.871094 " fill-opacity="1" fill-rule="evenodd"/><path fill="#ffa743" d="M 230.757812 137.597656 C 231.859375 139.421875 237.289062 138.382812 234.082031 135.28125 C 231.222656 132.519531 237.304688 130.316406 231.050781 127.09375 C 222.183594 122.527344 226.570312 132.121094 220.863281 128.238281 C 219.449219 127.28125 216.800781 126.894531 215.496094 128.601562 C 212.699219 132.265625 213.730469 129.835938 213.894531 134.003906 C 213.894531 134.097656 210.148438 138.085938 214.804688 140.328125 C 217.015625 141.390625 218.21875 138.90625 219.003906 137.457031 C 220.425781 134.828125 222.847656 139.027344 226.792969 136.078125 C 228.082031 135.117188 230.246094 136.742188 230.757812 137.597656 " fill-opacity="1" fill-rule="evenodd"/><path fill="#332c2b" d="M 214.667969 112.613281 C 213.140625 112.78125 212.855469 114.089844 213.59375 114.3125 C 215.546875 114.90625 213.488281 116.664062 216.472656 115.339844 C 217.453125 114.90625 215.730469 113.175781 215.730469 112.480469 C 215.507812 112.480469 214.835938 112.59375 214.667969 112.613281 " fill-opacity="1" fill-rule="evenodd"/><path fill="#ffa743" d="M 209.167969 110.140625 C 211.136719 108.5625 208.125 106.78125 211.777344 106.140625 C 213.15625 105.902344 211.734375 105.132812 213.589844 104.546875 C 214.269531 104.332031 214.796875 103.546875 215.113281 102.542969 C 211.429688 100.507812 208.25 99.179688 205.644531 97.222656 C 205.226562 98.34375 207.519531 99.15625 205.554688 101.1875 C 203.636719 103.160156 200.398438 101.894531 200.414062 105.554688 C 200.421875 106.753906 199.277344 106.996094 200.585938 109.277344 C 202.527344 112.65625 200.296875 110.125 200.871094 113.667969 C 201.144531 115.347656 205.222656 117.320312 205.222656 113.527344 C 205.222656 109.691406 206.691406 112.136719 209.167969 110.140625 " fill-opacity="1" fill-rule="evenodd"/><path fill="#201b17" d="M 198.363281 99.320312 C 201.761719 99.320312 199.433594 99.082031 202.59375 98.019531 C 203.34375 97.765625 203.953125 97.226562 203.953125 96.363281 L 204.253906 96.0625 C 202.851562 94.757812 201.65625 93.15625 200.671875 90.992188 C 200.375 91.367188 200.214844 91.832031 200.25 92.394531 C 200.410156 94.914062 196.101562 94.027344 194.621094 94.765625 C 192.726562 95.703125 190.199219 97.0625 190.511719 99.710938 C 190.65625 100.921875 193.484375 101.519531 193.417969 101.867188 C 193.097656 103.503906 192.019531 105.277344 195.125 104.757812 C 198.324219 104.226562 194.792969 99.320312 198.363281 99.320312 " fill-opacity="1" fill-rule="evenodd"/><path fill="#201b17" d="M 218.640625 223.175781 C 216.253906 224.898438 216.601562 227.03125 217.914062 228.265625 C 219.132812 229.40625 221.175781 229.785156 222.660156 228.378906 C 225.992188 225.226562 222.582031 220.332031 218.640625 223.175781 " fill-opacity="1" fill-rule="evenodd"/><path fill="#201b17" d="M 212.046875 165.160156 C 212.542969 164.324219 213.945312 163.820312 214.84375 163.820312 C 219.015625 163.820312 218.179688 165.484375 221.277344 161.808594 C 222.671875 160.15625 225.527344 159.953125 225.527344 162.597656 C 225.527344 166.015625 224.519531 166.121094 221.546875 166.792969 C 219.222656 167.316406 220.359375 169.441406 219.601562 171.265625 C 218.523438 173.878906 217.378906 173.894531 214.546875 173.8125 C 213.019531 173.769531 212.570312 172.46875 212.621094 171.214844 C 212.71875 169.074219 210.757812 167.324219 212.046875 165.160156 " fill-opacity="1" fill-rule="evenodd"/><path fill="#201b17" d="M 221.753906 152.4375 C 221.296875 153.1875 221.476562 154.429688 222.785156 155.0625 C 223.667969 155.488281 223.234375 156.726562 223.207031 157.601562 C 223.171875 158.871094 225.191406 159.019531 224.890625 157.527344 C 224.777344 156.976562 224.625 156.238281 225.109375 155.464844 C 225.367188 155.050781 225.808594 154.625 226.53125 154.210938 C 227.382812 153.722656 227.664062 153.019531 227.550781 152.519531 C 227.253906 151.207031 225.894531 152.382812 224.746094 152.621094 C 223.417969 152.894531 222.878906 150.582031 221.753906 152.4375 " fill-opacity="1" fill-rule="evenodd"/><path fill="#201b17" d="M 238.578125 178.886719 C 234.167969 179.882812 236.753906 181.816406 236.886719 186.125 C 236.921875 187.429688 234.246094 186.34375 231.226562 186.875 C 226.480469 187.71875 221.121094 190.460938 225.941406 196.753906 C 226.726562 197.785156 228.886719 198.457031 230.898438 197.71875 C 235.3125 196.109375 234.121094 193.511719 235.65625 192.320312 C 237.035156 191.253906 239.535156 191.191406 239.824219 188.085938 C 239.835938 188.003906 244.230469 177.605469 238.578125 178.886719 " fill-opacity="1" fill-rule="evenodd"/><path fill="#201b17" d="M 222.289062 119.835938 C 220.0625 118.566406 216.910156 118.929688 216.890625 121.890625 C 216.832031 130.398438 221.292969 127.566406 224.195312 129.972656 C 224.582031 130.296875 225.109375 132.738281 228.527344 132.46875 C 229.046875 132.429688 229.546875 129.550781 227.550781 127.800781 C 224.835938 125.414062 229.328125 120.292969 223.980469 120.523438 C 223.132812 120.558594 222.554688 119.984375 222.289062 119.835938 " fill-opacity="1" fill-rule="evenodd"/><path fill="#201b17" d="M 238.859375 148.425781 C 238.800781 152.082031 234.394531 148.914062 230.238281 152.496094 C 226.910156 155.363281 224.941406 157.511719 228.792969 161.382812 C 230.457031 163.054688 232.332031 159.183594 232.707031 165.113281 C 232.902344 168.199219 239.574219 173.242188 239.894531 168.628906 C 240.058594 166.300781 242.269531 172.375 246.046875 169.605469 C 247.058594 168.863281 247.664062 166.769531 248.050781 165.667969 L 248.683594 165.246094 C 248.605469 160.957031 248.234375 156.683594 247.554688 152.464844 C 247.277344 152.316406 246.972656 152.105469 246.632812 151.824219 C 245.671875 151.03125 245.660156 148.222656 244.28125 148.222656 C 243.621094 148.222656 243.082031 148.277344 242.683594 148.109375 C 241.070312 147.441406 238.917969 144.601562 238.859375 148.425781 " fill-opacity="1" fill-rule="evenodd"/><g clip-path="url(#id1)"><path fill="#201b17" d="M 236.941406 143.882812 C 237.695312 135.347656 239.511719 114.667969 238.914062 109.160156 C 238.539062 105.765625 237.832031 104.074219 236.980469 103.515625 C 236.660156 103.304688 236.273438 103.308594 235.855469 103.464844 C 235.28125 103.683594 234.660156 104.160156 234.042969 104.789062 C 231.90625 106.980469 230.035156 110.734375 229.984375 112.644531 C 231.847656 116.570312 233.15625 119.683594 233.070312 120.628906 C 230.683594 117.484375 227.777344 113.207031 224.78125 110.585938 C 221.859375 108.027344 218.652344 105.746094 215.15625 103.773438 C 213.777344 102.996094 212.441406 102.3125 211.183594 101.664062 C 204.867188 98.421875 200.347656 96.105469 198.050781 86.429688 C 197.75 85.171875 197.433594 83.695312 197.097656 82.125 C 194.808594 71.4375 191.550781 56.226562 179.484375 50.265625 C 179.945312 60.578125 180.246094 65.941406 175.714844 75.003906 C 174.0625 78.308594 171.832031 81.527344 169 83.671875 C 163.964844 87.488281 157.542969 88.515625 154.503906 88.789062 C 160.105469 97.847656 172.132812 102.921875 182.578125 107.328125 C 184.339844 108.070312 186.058594 108.796875 187.6875 109.511719 L 187.414062 109.269531 C 184.191406 106.652344 182.226562 102.585938 181.925781 100.605469 C 183.960938 105.699219 191.714844 110.835938 196.554688 114.40625 C 202.152344 118.539062 205.847656 123.894531 208.101562 129.949219 C 208.914062 132.140625 209.539062 134.417969 209.996094 136.761719 C 210.476562 139.246094 210.824219 142.75 210.847656 146.414062 C 210.878906 151.285156 210.585938 155.726562 209.988281 159.941406 C 208.3125 171.769531 203.625 185.039062 199.25 196.25 C 197.339844 201.15625 193.167969 214.414062 192.246094 225.234375 C 191.703125 231.632812 192.269531 237.097656 195.125 239.15625 C 198.335938 241.472656 203.082031 240.914062 207.9375 239.027344 C 215.0625 236.261719 222.308594 230.6875 225.605469 226.933594 C 227.503906 224.773438 229.289062 222.511719 230.960938 220.15625 C 232.046875 218.625 233.082031 217.058594 234.0625 215.453125 C 231.410156 215.625 228.40625 215.617188 227.117188 214.910156 C 235.085938 213.0625 241.542969 211.359375 249.234375 207.917969 C 255.796875 204.976562 262.285156 201.007812 265.050781 196.078125 C 266.34375 193.773438 266.554688 191.996094 266.03125 190.695312 C 265.644531 189.75 264.855469 189.015625 263.796875 188.484375 C 262.640625 187.90625 261.183594 187.566406 259.574219 187.460938 C 255.082031 187.160156 249.605469 188.664062 246.476562 191.738281 C 245.621094 194.941406 241.730469 202.027344 239.375 202.476562 C 240.890625 199.992188 243.050781 196.625 244.667969 190.328125 C 247.101562 180.878906 248.070312 171.035156 247.472656 161.324219 C 246.894531 151.894531 244.839844 142.59375 241.210938 133.890625 C 240.851562 133.03125 240.488281 132.191406 240.113281 131.386719 C 239.726562 136.386719 237.996094 142.855469 236.941406 143.882812 Z M 204.199219 175.683594 C 205.527344 171.488281 208.65625 159.476562 208.664062 153.210938 C 206.941406 154.851562 204.597656 155.910156 202.238281 156.972656 C 198.375 158.71875 194.464844 160.488281 194.058594 164.96875 C 193.453125 171.632812 200.882812 174.652344 204.199219 175.683594 Z M 208.277344 241.152344 C 209.375 242.902344 210.792969 246.308594 210.8125 247.609375 C 210.011719 245.820312 208.945312 243.464844 206.863281 241.644531 C 202.03125 243.199219 197.351562 243.363281 193.890625 240.867188 C 192.121094 239.585938 191.039062 237.4375 190.46875 234.734375 C 187.800781 235.066406 185.636719 235.769531 183.320312 237.066406 C 185.289062 235.117188 187.433594 234.007812 190.246094 233.484375 C 189.878906 230.992188 189.882812 228.113281 190.140625 225.058594 C 191.082031 214.007812 195.332031 200.484375 197.285156 195.484375 C 199.570312 189.625 201.730469 183.707031 203.589844 177.699219 C 199.855469 176.539062 191.207031 173.015625 191.957031 164.78125 C 192.476562 159.070312 196.953125 157.050781 201.371094 155.054688 C 207.121094 152.457031 208.980469 151.960938 208.867188 146.355469 C 208.75 140.847656 207.925781 135.523438 206.125 130.683594 C 203.304688 123.105469 198.074219 116.6875 189.398438 112.605469 C 187.015625 111.484375 184.441406 110.398438 181.761719 109.269531 C 170.445312 104.496094 157.335938 98.964844 151.8125 88.324219 L 151.023438 86.804688 L 152.742188 86.785156 C 152.769531 86.785156 161.445312 86.742188 167.726562 81.984375 C 170.269531 80.054688 172.308594 77.109375 173.828125 74.066406 C 178.359375 65.007812 177.941406 57.519531 177.457031 47.09375 L 178.871094 47.675781 C 193.132812 53.53125 196.691406 70.144531 199.160156 81.683594 C 199.484375 83.175781 199.78125 84.578125 200.105469 85.945312 C 202.183594 94.679688 206.335938 96.8125 212.140625 99.789062 C 213.40625 100.4375 214.75 101.128906 216.1875 101.941406 C 219.824219 103.992188 223.144531 106.355469 226.167969 109 C 226.863281 109.609375 227.542969 110.234375 228.210938 110.871094 C 228.90625 108.4375 230.621094 105.28125 232.53125 103.324219 C 233.351562 102.476562 234.230469 101.824219 235.117188 101.488281 C 236.15625 101.097656 237.183594 101.128906 238.136719 101.753906 C 239.488281 102.644531 240.558594 104.832031 241.011719 108.9375 C 241.347656 112.050781 240.964844 119.613281 240.425781 127.25 C 240.898438 128.152344 241.363281 129.089844 241.824219 130.066406 C 242.300781 131.085938 242.746094 132.09375 243.160156 133.082031 C 246.878906 142.003906 248.988281 151.539062 249.578125 161.199219 C 250.136719 170.296875 249.351562 179.507812 247.300781 188.429688 C 250.871094 186.15625 255.664062 185.085938 259.714844 185.355469 C 261.585938 185.480469 263.320312 185.886719 264.738281 186.597656 C 266.25 187.355469 267.398438 188.453125 267.988281 189.902344 C 268.75 191.785156 268.539062 194.179688 266.894531 197.109375 C 261.8125 206.167969 245.558594 212.058594 237.023438 214.613281 C 235.675781 216.933594 234.226562 219.191406 232.675781 221.378906 C 230.972656 223.785156 229.144531 226.101562 227.191406 228.320312 C 222.707031 233.429688 214.605469 238.789062 208.277344 241.152344 " fill-opacity="1" fill-rule="nonzero"/></g><path fill="#ffa743" d="M 133.699219 161.246094 C 133.46875 158.820312 132.523438 156.257812 133.875 154.328125 C 134.78125 153.042969 137.519531 153.332031 139.449219 151.859375 C 141.695312 150.148438 143.164062 146.699219 144.210938 145.632812 C 144.835938 144.992188 146.574219 143.296875 148.683594 141.507812 C 151.9375 138.746094 154.695312 136.34375 157.019531 136.664062 C 161.320312 137.257812 159.871094 139.167969 161.105469 139.6875 C 162.605469 140.316406 167 138.382812 167.625 139.636719 C 168.90625 142.21875 165.289062 142.0625 170.457031 148.488281 C 171.992188 150.398438 173.066406 156.792969 169.730469 158.347656 C 162.660156 161.652344 162.167969 160.996094 163.019531 168.257812 C 163.902344 175.8125 156.925781 172.042969 154.542969 179.738281 C 154.113281 181.117188 153.3125 184.578125 154.789062 185.496094 C 158.089844 185.496094 158.796875 192.628906 152.65625 192.628906 C 149.082031 192.628906 142.976562 194.089844 142.992188 198.703125 C 143.003906 201.570312 137.269531 203.261719 136.175781 200.644531 C 132.785156 192.519531 143.800781 195.878906 135.785156 188.367188 C 133.707031 186.417969 132.078125 182.304688 134.25 179.972656 C 137.714844 176.242188 130.859375 172.753906 132.558594 166.714844 C 133.113281 164.746094 133.957031 163.941406 133.699219 161.246094 " fill-opacity="1" fill-rule="evenodd"/><path fill="#ffa743" d="M 139.996094 228.445312 C 142.375 232.582031 135.96875 228.625 135.96875 233.789062 C 135.96875 238.433594 142.042969 236.679688 142.117188 235.476562 C 142.523438 229.289062 148.746094 234.46875 151.667969 229.609375 C 153.363281 226.785156 150.269531 221.765625 146.136719 224.433594 C 140.714844 227.941406 143.128906 224.121094 138.710938 224.289062 C 137.453125 224.335938 139.28125 227.195312 139.996094 228.445312 " fill-opacity="1" fill-rule="evenodd"/><path fill="#ffa743" d="M 132.464844 238.070312 C 131.1875 235.945312 124.867188 237.15625 128.597656 240.765625 C 131.921875 243.972656 124.851562 246.539062 132.125 250.285156 C 142.4375 255.601562 137.335938 244.4375 143.976562 248.953125 C 145.617188 250.066406 148.699219 250.511719 150.214844 248.53125 C 153.46875 244.273438 152.273438 247.09375 152.078125 242.25 C 152.078125 242.136719 156.4375 237.5 151.023438 234.890625 C 148.449219 233.652344 147.046875 236.550781 146.136719 238.234375 C 144.480469 241.285156 141.664062 236.40625 137.074219 239.832031 C 135.578125 240.953125 133.0625 239.058594 132.464844 238.070312 " fill-opacity="1" fill-rule="evenodd"/><path fill="#332c2b" d="M 151.179688 267.128906 C 152.957031 266.933594 153.285156 265.410156 152.429688 265.148438 C 150.15625 264.460938 152.554688 262.414062 149.082031 263.957031 C 147.941406 264.460938 149.945312 266.472656 149.945312 267.28125 C 150.203125 267.28125 150.984375 267.148438 151.179688 267.128906 " fill-opacity="1" fill-rule="evenodd"/><path fill="#ffa743" d="M 157.574219 270 C 155.289062 271.84375 158.785156 273.90625 154.539062 274.65625 C 152.933594 274.933594 154.59375 275.828125 152.4375 276.511719 C 151.640625 276.761719 151.03125 277.675781 150.660156 278.839844 C 154.945312 281.207031 158.644531 282.753906 161.675781 285.023438 C 162.160156 283.722656 159.492188 282.777344 161.78125 280.421875 C 164.007812 278.125 167.777344 279.597656 167.757812 275.335938 C 167.75 273.941406 169.085938 273.664062 167.558594 271.007812 C 165.300781 267.078125 167.894531 270.015625 167.226562 265.902344 C 166.910156 263.945312 162.167969 261.65625 162.167969 266.066406 C 162.167969 270.527344 160.457031 267.679688 157.574219 270 " fill-opacity="1" fill-rule="evenodd"/><path fill="#201b17" d="M 170.148438 282.585938 C 166.1875 282.585938 168.898438 282.867188 165.222656 284.101562 C 164.347656 284.398438 163.640625 285.023438 163.640625 286.027344 L 163.292969 286.375 C 164.921875 287.894531 166.316406 289.757812 167.460938 292.273438 C 167.800781 291.835938 167.988281 291.300781 167.949219 290.648438 C 167.761719 287.710938 172.769531 288.742188 174.5 287.890625 C 176.699219 286.796875 179.636719 285.210938 179.273438 282.128906 C 179.109375 280.722656 175.816406 280.03125 175.898438 279.625 C 176.265625 277.722656 177.523438 275.664062 173.914062 276.265625 C 170.191406 276.882812 174.300781 282.585938 170.148438 282.585938 " fill-opacity="1" fill-rule="evenodd"/><path fill="#201b17" d="M 146.558594 138.53125 C 149.332031 136.523438 148.933594 134.050781 147.402344 132.609375 C 145.988281 131.285156 143.609375 130.84375 141.886719 132.476562 C 138.007812 136.140625 141.976562 141.839844 146.558594 138.53125 " fill-opacity="1" fill-rule="evenodd"/><path fill="#201b17" d="M 154.230469 206.011719 C 153.652344 206.980469 152.019531 207.570312 150.976562 207.570312 C 146.125 207.570312 147.09375 205.628906 143.492188 209.90625 C 141.875 211.835938 138.550781 212.066406 138.550781 208.988281 C 138.550781 205.011719 139.71875 204.890625 143.179688 204.113281 C 145.882812 203.503906 144.5625 201.03125 145.4375 198.90625 C 146.699219 195.863281 148.023438 195.851562 151.320312 195.941406 C 153.097656 195.992188 153.621094 197.503906 153.558594 198.96875 C 153.445312 201.460938 155.730469 203.492188 154.230469 206.011719 " fill-opacity="1" fill-rule="evenodd"/><path fill="#201b17" d="M 142.941406 220.804688 C 143.464844 219.933594 143.257812 218.488281 141.742188 217.757812 C 140.714844 217.261719 141.21875 215.816406 141.25 214.800781 C 141.292969 213.320312 138.9375 213.148438 139.292969 214.886719 C 139.421875 215.527344 139.597656 216.382812 139.03125 217.289062 C 138.734375 217.769531 138.222656 218.261719 137.378906 218.746094 C 136.390625 219.3125 136.066406 220.132812 136.199219 220.714844 C 136.542969 222.238281 138.121094 220.867188 139.457031 220.59375 C 141.003906 220.28125 141.632812 222.964844 142.941406 220.804688 " fill-opacity="1" fill-rule="evenodd"/><path fill="#201b17" d="M 123.371094 190.046875 C 128.496094 188.882812 125.488281 186.636719 125.335938 181.621094 C 125.296875 180.105469 128.410156 181.371094 131.917969 180.753906 C 137.441406 179.777344 143.675781 176.582031 138.066406 169.261719 C 137.148438 168.066406 134.640625 167.28125 132.304688 168.136719 C 127.167969 170.011719 128.554688 173.03125 126.769531 174.417969 C 125.164062 175.660156 122.257812 175.730469 121.917969 179.34375 C 121.90625 179.441406 116.796875 191.535156 123.371094 190.046875 " fill-opacity="1" fill-rule="evenodd"/><path fill="#201b17" d="M 142.316406 258.726562 C 144.902344 260.207031 148.574219 259.78125 148.597656 256.339844 C 148.664062 246.445312 143.472656 249.738281 140.101562 246.933594 C 139.644531 246.558594 139.035156 243.722656 135.058594 244.03125 C 134.453125 244.078125 133.875 247.425781 136.199219 249.464844 C 139.351562 252.238281 134.125 258.195312 140.34375 257.929688 C 141.332031 257.886719 142.007812 258.554688 142.316406 258.726562 " fill-opacity="1" fill-rule="evenodd"/><path fill="#201b17" d="M 123.046875 225.472656 C 123.109375 221.222656 128.234375 224.90625 133.070312 220.738281 C 136.941406 217.402344 139.234375 214.902344 134.75 210.398438 C 132.816406 208.457031 130.636719 212.964844 130.199219 206.066406 C 129.972656 202.472656 122.210938 196.613281 121.835938 201.976562 C 121.648438 204.6875 119.078125 197.617188 114.683594 200.839844 C 113.503906 201.703125 112.796875 204.140625 112.355469 205.417969 L 111.617188 205.910156 C 111.703125 210.894531 112.140625 215.867188 112.929688 220.777344 C 113.25 220.949219 113.605469 221.191406 114 221.515625 C 115.117188 222.441406 115.132812 225.710938 116.734375 225.710938 C 117.5 225.710938 118.132812 225.648438 118.59375 225.839844 C 120.472656 226.621094 122.976562 229.917969 123.046875 225.472656 " fill-opacity="1" fill-rule="evenodd"/><g clip-path="url(#id2)"><path fill="#201b17" d="M 125.269531 230.757812 C 124.398438 240.683594 122.277344 264.738281 122.984375 271.144531 C 123.414062 275.09375 124.238281 277.0625 125.226562 277.710938 C 125.601562 277.957031 126.046875 277.949219 126.535156 277.769531 C 127.203125 277.515625 127.925781 276.960938 128.644531 276.226562 C 131.128906 273.675781 133.300781 269.308594 133.367188 267.089844 C 131.203125 262.527344 129.679688 258.902344 129.769531 257.804688 C 132.554688 261.460938 135.933594 266.4375 139.417969 269.484375 C 142.816406 272.460938 146.546875 275.113281 150.609375 277.410156 C 152.214844 278.3125 153.769531 279.109375 155.234375 279.863281 C 162.578125 283.628906 167.835938 286.328125 170.507812 297.582031 C 170.859375 299.046875 171.226562 300.765625 171.617188 302.589844 C 174.277344 315.019531 178.070312 332.710938 192.101562 339.644531 C 191.566406 327.648438 191.21875 321.40625 196.488281 310.867188 C 198.40625 307.027344 201.007812 303.285156 204.296875 300.792969 C 210.15625 296.351562 217.625 295.15625 221.15625 294.835938 C 214.644531 284.300781 200.65625 278.398438 188.503906 273.273438 C 186.453125 272.410156 184.457031 271.566406 182.566406 270.734375 L 182.878906 271.015625 C 186.625 274.0625 188.914062 278.789062 189.261719 281.09375 C 186.898438 275.167969 177.878906 269.195312 172.246094 265.039062 C 165.738281 260.234375 161.441406 254.007812 158.820312 246.964844 C 157.875 244.417969 157.148438 241.765625 156.613281 239.035156 C 156.050781 236.152344 155.652344 232.074219 155.625 227.8125 C 155.589844 222.144531 155.925781 216.988281 156.621094 212.082031 C 158.570312 198.324219 164.023438 182.886719 169.109375 169.847656 C 171.335938 164.140625 176.183594 148.722656 177.257812 136.136719 C 177.890625 128.695312 177.226562 122.339844 173.910156 119.941406 C 170.179688 117.246094 164.65625 117.902344 159.007812 120.09375 C 150.71875 123.3125 142.292969 129.792969 138.457031 134.160156 C 136.25 136.675781 134.171875 139.308594 132.230469 142.042969 C 130.96875 143.824219 129.769531 145.644531 128.621094 147.507812 C 131.703125 147.316406 135.199219 147.320312 136.699219 148.144531 C 127.433594 150.292969 119.921875 152.277344 110.976562 156.277344 C 103.34375 159.695312 95.796875 164.3125 92.574219 170.050781 C 91.074219 172.730469 90.828125 174.796875 91.441406 176.308594 C 91.886719 177.410156 92.808594 178.265625 94.039062 178.882812 C 95.378906 179.558594 97.078125 179.945312 98.945312 180.070312 C 104.175781 180.421875 110.542969 178.671875 114.183594 175.09375 C 115.175781 171.371094 119.703125 163.125 122.441406 162.605469 C 120.679688 165.496094 118.167969 169.414062 116.285156 176.734375 C 113.457031 187.726562 112.328125 199.171875 113.027344 210.472656 C 113.695312 221.4375 116.085938 232.257812 120.304688 242.378906 C 120.726562 243.382812 121.152344 244.351562 121.582031 245.289062 C 122.035156 239.472656 124.046875 231.953125 125.269531 230.757812 Z M 163.355469 193.769531 C 161.8125 198.648438 158.171875 212.621094 158.164062 219.90625 C 160.167969 218 162.890625 216.769531 165.636719 215.527344 C 170.125 213.5 174.679688 211.445312 175.152344 206.234375 C 175.855469 198.480469 167.210938 194.96875 163.355469 193.769531 Z M 158.609375 117.621094 C 157.339844 115.585938 155.6875 111.625 155.664062 110.109375 C 156.59375 112.195312 157.835938 114.929688 160.257812 117.046875 C 165.878906 115.242188 171.324219 115.050781 175.34375 117.957031 C 177.402344 119.445312 178.664062 121.941406 179.328125 125.085938 C 182.429688 124.699219 184.949219 123.882812 187.640625 122.375 C 185.351562 124.636719 182.855469 125.933594 179.585938 126.539062 C 180.011719 129.441406 180.007812 132.792969 179.707031 136.339844 C 178.609375 149.191406 173.667969 164.921875 171.398438 170.738281 C 168.742188 177.550781 166.226562 184.4375 164.066406 191.421875 C 168.410156 192.777344 178.464844 196.875 177.59375 206.453125 C 176.988281 213.09375 171.78125 215.449219 166.648438 217.765625 C 159.960938 220.789062 157.792969 221.355469 157.925781 227.882812 C 158.058594 234.289062 159.023438 240.480469 161.117188 246.109375 C 164.394531 254.925781 170.480469 262.386719 180.566406 267.132812 C 183.34375 268.4375 186.339844 269.703125 189.457031 271.015625 C 202.613281 276.566406 217.863281 283 224.289062 295.378906 L 225.203125 297.148438 L 223.207031 297.167969 C 223.175781 297.167969 213.082031 297.214844 205.777344 302.753906 C 202.820312 304.996094 200.445312 308.425781 198.679688 311.960938 C 193.410156 322.496094 193.894531 331.214844 194.457031 343.332031 L 192.816406 342.65625 C 176.226562 335.84375 172.089844 316.523438 169.214844 303.101562 C 168.84375 301.367188 168.496094 299.734375 168.117188 298.148438 C 165.703125 287.984375 160.871094 285.507812 154.117188 282.042969 C 152.644531 281.289062 151.082031 280.488281 149.410156 279.539062 C 145.1875 277.152344 141.320312 274.40625 137.804688 271.328125 C 136.996094 270.621094 136.203125 269.898438 135.429688 269.15625 C 134.621094 271.984375 132.628906 275.65625 130.40625 277.9375 C 129.445312 278.917969 128.425781 279.675781 127.398438 280.066406 C 126.1875 280.519531 124.988281 280.484375 123.882812 279.757812 C 122.308594 278.722656 121.066406 276.179688 120.542969 271.402344 C 120.144531 267.78125 120.59375 258.984375 121.226562 250.101562 C 120.671875 249.054688 120.128906 247.957031 119.59375 246.828125 C 119.039062 245.640625 118.519531 244.472656 118.039062 243.316406 C 113.714844 232.945312 111.265625 221.855469 110.574219 210.617188 C 109.921875 200.035156 110.839844 189.320312 113.226562 178.945312 C 109.070312 181.589844 103.5 182.835938 98.785156 182.523438 C 96.609375 182.378906 94.589844 181.902344 92.945312 181.074219 C 91.1875 180.191406 89.847656 178.917969 89.164062 177.230469 C 88.28125 175.042969 88.523438 172.253906 90.433594 168.851562 C 96.347656 158.316406 115.25 151.460938 125.175781 148.488281 C 126.746094 145.792969 128.433594 143.164062 130.230469 140.621094 C 132.214844 137.824219 134.34375 135.128906 136.609375 132.542969 C 141.828125 126.605469 151.25 120.371094 158.609375 117.621094 " fill-opacity="1" fill-rule="nonzero"/></g></svg>