<svg xmlns="http://www.w3.org/2000/svg" xmlns:xlink="http://www.w3.org/1999/xlink" width="500" zoomAndPan="magnify" viewBox="0 0 375 374.999991" height="500" preserveAspectRatio="xMidYMid meet" version="1.0"><defs><clipPath id="id1"><path d="M 91 95 L 284 95 L 284 286.605469 L 91 286.605469 Z M 91 95 " clip-rule="nonzero"/></clipPath></defs><g clip-path="url(#id1)"><path fill="#400128" d="M 230.179688 163.285156 C 231.371094 163.457031 232.554688 163.664062 233.730469 163.90625 C 234.90625 164.144531 236.074219 164.417969 237.238281 164.726562 C 238.398438 165.035156 239.546875 165.375 240.691406 165.75 C 241.832031 166.125 242.960938 166.535156 244.078125 166.976562 C 245.195312 167.414062 246.296875 167.886719 247.386719 168.394531 C 248.476562 168.898438 249.550781 169.433594 250.613281 170 C 251.671875 170.570312 252.710938 171.167969 253.734375 171.792969 C 254.757812 172.421875 255.765625 173.078125 256.75 173.765625 C 257.738281 174.453125 258.703125 175.167969 259.644531 175.910156 C 260.589844 176.652344 261.511719 177.421875 262.410156 178.214844 C 263.3125 179.011719 264.1875 179.832031 265.039062 180.679688 C 265.890625 181.527344 266.71875 182.398438 267.519531 183.292969 C 268.320312 184.1875 269.09375 185.105469 269.84375 186.046875 C 270.589844 186.988281 271.3125 187.949219 272.003906 188.929688 C 272.695312 189.910156 273.359375 190.914062 273.992188 191.933594 C 274.625 192.953125 275.230469 193.992188 275.804688 195.046875 C 276.378906 196.101562 276.917969 197.175781 277.429688 198.261719 C 277.941406 199.347656 278.421875 200.449219 278.871094 201.566406 C 279.316406 202.679688 279.730469 203.804688 280.113281 204.945312 C 280.496094 206.085938 280.84375 207.234375 281.160156 208.394531 C 281.472656 209.554688 281.753906 210.71875 282.003906 211.894531 C 282.25 213.070312 282.460938 214.253906 282.640625 215.441406 C 282.820312 216.628906 282.964844 217.820312 283.074219 219.019531 C 283.183594 220.214844 283.257812 221.414062 283.296875 222.613281 C 283.335938 223.816406 283.339844 225.015625 283.308594 226.21875 C 283.28125 227.417969 283.214844 228.617188 283.117188 229.816406 C 283.015625 231.011719 282.882812 232.207031 282.710938 233.394531 C 282.542969 234.585938 282.339844 235.769531 282.101562 236.945312 C 281.863281 238.125 281.589844 239.292969 281.285156 240.457031 C 280.980469 241.617188 280.640625 242.769531 280.265625 243.910156 C 279.894531 245.054688 279.488281 246.183594 279.050781 247.300781 C 278.613281 248.421875 278.140625 249.523438 277.636719 250.617188 C 277.609375 250.695312 277.574219 250.773438 277.527344 250.84375 C 276.519531 253.003906 275.390625 255.097656 274.140625 257.125 C 272.890625 259.152344 271.527344 261.105469 270.054688 262.976562 C 268.582031 264.847656 267.003906 266.628906 265.324219 268.316406 C 263.644531 270.007812 261.875 271.597656 260.011719 273.082031 C 258.152344 274.570312 256.210938 275.941406 254.1875 277.207031 C 252.167969 278.46875 250.082031 279.609375 247.929688 280.632812 C 245.78125 281.65625 243.574219 282.550781 241.320312 283.320312 C 239.066406 284.085938 236.773438 284.722656 234.445312 285.226562 C 231.625 286.074219 224.664062 286.613281 221.375 286.613281 C 215.824219 286.621094 210.375 285.894531 205.019531 284.429688 C 199.664062 282.964844 194.601562 280.816406 189.828125 277.984375 C 189.664062 277.925781 189.515625 277.839844 189.390625 277.722656 C 186.734375 276.117188 184.214844 274.324219 181.832031 272.347656 C 171.78125 271.5625 148.703125 278.292969 144.789062 279.464844 C 142.484375 283.316406 139.351562 285.777344 135.574219 285.777344 C 131.582031 285.777344 128.515625 283.003906 126.339844 279.363281 C 111.40625 273.695312 102.667969 265.0625 97.769531 255.9375 C 90.007812 241.488281 91.914062 225.824219 94.054688 218.726562 C 96.410156 210.9375 98.328125 205.957031 99.890625 201.925781 C 103.105469 193.625 104.714844 189.46875 105.304688 171.824219 C 105.523438 165.324219 106.625 160.300781 108.046875 156.464844 C 89.359375 145.976562 90.890625 121.355469 91.585938 120.179688 C 100.84375 104.601562 110.480469 107.660156 119.789062 113.191406 C 123.855469 115.609375 128.617188 119.074219 132.6875 120.84375 C 151.929688 109.761719 171.5 110.648438 184.78125 113.480469 C 188.5625 112.484375 192.429688 109.113281 196.402344 105.660156 C 205.917969 97.375 215.972656 88.617188 229.335938 105.101562 C 229.492188 105.292969 229.59375 105.507812 229.636719 105.75 C 229.636719 105.808594 233.863281 126.792969 221.257812 138.761719 C 224.867188 144.898438 228.992188 153.683594 230.195312 163.285156 " fill-opacity="1" fill-rule="nonzero"/></g><path fill="#f1892d" d="M 258.335938 229.113281 C 261.179688 201.511719 252.546875 177.3125 251.183594 173.664062 C 247.625 171.589844 243.890625 169.910156 239.984375 168.613281 C 236.074219 167.320312 232.078125 166.445312 227.984375 165.984375 C 223.894531 165.527344 219.800781 165.496094 215.703125 165.890625 C 211.605469 166.285156 207.589844 167.097656 203.664062 168.332031 C 209.777344 181.492188 223.792969 203.378906 238.589844 217.148438 C 245.574219 223.652344 252.292969 228.015625 258.335938 229.148438 " fill-opacity="1" fill-rule="nonzero"/><path fill="#f5ab35" d="M 252.914062 178.816406 L 251.183594 173.664062 C 247.625 171.589844 243.890625 169.910156 239.984375 168.613281 C 236.074219 167.320312 232.078125 166.445312 227.984375 165.984375 C 223.894531 165.527344 219.800781 165.496094 215.703125 165.890625 C 211.605469 166.285156 207.589844 167.097656 203.664062 168.332031 C 204.011719 169.082031 204.390625 169.867188 204.792969 170.683594 C 216.460938 168.484375 227.484375 168.917969 237.25 171.683594 C 239.261719 175.496094 248.390625 183.011719 255.324219 187.761719 C 254.492188 184.230469 253.640625 181.207031 252.914062 178.863281 Z M 252.914062 178.816406 " fill-opacity="1" fill-rule="nonzero"/><path fill="#f1892d" d="M 233.234375 282.488281 C 238.210938 277.671875 242.511719 272.3125 246.136719 266.410156 C 233.4375 266.734375 210.441406 273.46875 194.40625 277.15625 C 197.375 278.679688 200.449219 279.945312 203.628906 280.945312 C 206.8125 281.949219 210.054688 282.675781 213.359375 283.128906 C 216.664062 283.582031 219.984375 283.757812 223.316406 283.648438 C 226.652344 283.539062 229.953125 283.152344 233.21875 282.484375 " fill-opacity="1" fill-rule="nonzero"/><path fill="#c16825" d="M 233.234375 282.488281 C 234.757812 281.003906 236.195312 279.5 237.546875 277.96875 C 234.566406 278.660156 231.550781 279.125 228.5 279.363281 C 225.449219 279.605469 222.398438 279.617188 219.347656 279.402344 C 216.292969 279.1875 213.273438 278.75 210.289062 278.085938 C 207.300781 277.421875 204.378906 276.542969 201.523438 275.445312 C 199.042969 276.058594 196.648438 276.640625 194.394531 277.160156 C 197.363281 278.683594 200.4375 279.949219 203.617188 280.949219 C 206.800781 281.953125 210.042969 282.679688 213.347656 283.132812 C 216.652344 283.585938 219.972656 283.761719 223.304688 283.652344 C 226.640625 283.542969 229.941406 283.15625 233.207031 282.488281 " fill-opacity="1" fill-rule="nonzero"/><path fill="#f1892d" d="M 249.507812 266.476562 C 246.425781 271.746094 242.8125 276.621094 238.664062 281.101562 C 246.058594 278.839844 252.746094 275.253906 258.726562 270.351562 C 256.941406 267.941406 253.75 266.769531 249.507812 266.476562 " fill-opacity="1" fill-rule="nonzero"/><path fill="#f5ab35" d="M 249.507812 266.476562 C 249.289062 266.867188 249.066406 267.222656 248.84375 267.597656 C 252.535156 267.894531 256.164062 268.933594 258.136719 270.828125 C 258.332031 270.667969 258.53125 270.511719 258.726562 270.351562 C 256.941406 267.941406 253.75 266.769531 249.507812 266.476562 " fill-opacity="1" fill-rule="nonzero"/><path fill="#c16825" d="M 242.558594 276.566406 C 241.332031 278.09375 240.035156 279.601562 238.660156 281.089844 C 246.054688 278.828125 252.742188 275.242188 258.722656 270.339844 C 258.390625 269.894531 258.015625 269.492188 257.597656 269.128906 C 252.949219 272.347656 247.9375 274.828125 242.558594 276.566406 " fill-opacity="1" fill-rule="nonzero"/><path fill="#f1892d" d="M 256.28125 251.8125 C 254.832031 255.925781 253.078125 259.90625 251.019531 263.753906 C 255.398438 264.253906 258.808594 265.6875 260.933594 268.4375 C 266.226562 263.648438 270.515625 258.089844 273.800781 251.753906 C 267.960938 252.199219 262.121094 252.21875 256.28125 251.8125 " fill-opacity="1" fill-rule="nonzero"/><path fill="#f5ab35" d="M 256.28125 251.8125 C 256.054688 252.449219 255.820312 253.085938 255.582031 253.722656 C 261.320312 254.046875 267.054688 254.011719 272.789062 253.625 C 273.132812 253.007812 273.472656 252.386719 273.800781 251.753906 C 267.960938 252.199219 262.121094 252.21875 256.28125 251.8125 " fill-opacity="1" fill-rule="nonzero"/><path fill="#c16825" d="M 260 267.378906 C 260.34375 267.707031 260.660156 268.058594 260.949219 268.4375 C 266.242188 263.648438 270.53125 258.089844 273.816406 251.753906 C 270.183594 257.824219 265.578125 263.03125 260 267.378906 " fill-opacity="1" fill-rule="nonzero"/><path fill="#f1892d" d="M 260.894531 232.34375 C 260.171875 237.980469 258.960938 243.515625 257.257812 248.941406 C 263.277344 249.332031 269.289062 249.246094 275.292969 248.683594 C 277.515625 243.6875 279.015625 238.488281 279.796875 233.074219 C 280.578125 227.664062 280.605469 222.25 279.882812 216.832031 C 275.210938 228.019531 268.574219 232.636719 260.894531 232.34375 " fill-opacity="1" fill-rule="nonzero"/><path fill="#f5ab35" d="M 275.292969 248.683594 C 277.328125 244.109375 278.757812 239.355469 279.585938 234.421875 C 280.410156 229.484375 280.605469 224.523438 280.171875 219.539062 C 280.171875 219.402344 280.144531 219.265625 280.132812 219.144531 L 280.085938 218.683594 C 280.023438 218.074219 279.953125 217.46875 279.875 216.859375 C 279.742188 217.175781 279.609375 217.484375 279.484375 217.789062 L 279.367188 218.050781 L 279.0625 218.714844 L 278.941406 218.972656 C 278.800781 219.257812 278.664062 219.542969 278.527344 219.816406 L 278.46875 219.929688 C 278.347656 220.167969 278.226562 220.40625 278.101562 220.636719 L 277.953125 220.910156 C 277.855469 221.09375 277.75 221.273438 277.648438 221.453125 L 277.5 221.714844 C 273.066406 229.394531 267.351562 232.617188 260.894531 232.371094 C 260.792969 233.152344 260.679688 233.9375 260.558594 234.753906 C 268.398438 234.917969 273.574219 231.074219 277.269531 225.210938 C 277.601562 233.121094 276.945312 240.941406 275.292969 248.683594 Z M 275.292969 248.683594 " fill-opacity="1" fill-rule="nonzero"/><path fill="#f1892d" d="M 255.164062 176.222656 C 257.960938 184.816406 263.644531 205.878906 261.234375 229.421875 C 268.554688 229.484375 274.703125 224.128906 278.84375 211.144531 C 278.019531 207.636719 276.882812 204.230469 275.433594 200.929688 C 273.984375 197.625 272.25 194.484375 270.226562 191.5 C 268.203125 188.515625 265.921875 185.738281 263.390625 183.171875 C 260.859375 180.605469 258.117188 178.289062 255.164062 176.222656 " fill-opacity="1" fill-rule="nonzero"/><path fill="#f5ab35" d="M 255.164062 176.222656 C 255.554688 177.484375 256.039062 179.003906 256.539062 180.761719 L 258.816406 190 C 262.988281 192.605469 266.40625 194.253906 268.144531 194.472656 C 272.234375 200.984375 275.105469 208.648438 276.464844 217.328125 C 277.390625 215.316406 278.183594 213.257812 278.84375 211.144531 C 278.019531 207.636719 276.882812 204.230469 275.433594 200.929688 C 273.984375 197.625 272.25 194.484375 270.226562 191.5 C 268.203125 188.515625 265.921875 185.738281 263.390625 183.171875 C 260.859375 180.605469 258.117188 178.289062 255.164062 176.222656 " fill-opacity="1" fill-rule="nonzero"/><path fill="#f5ab35" d="M 137.652344 259.050781 C 134.316406 252.707031 130.15625 264.148438 133.492188 270.519531 C 136.828125 276.886719 140.992188 265.421875 137.652344 259.050781 " fill-opacity="1" fill-rule="nonzero"/><path fill="#f5ab35" d="M 135.574219 254.242188 C 141.339844 254.242188 143.589844 265.511719 140.238281 271.890625 C 136.664062 278.6875 129.335938 274.996094 129.335938 264.800781 C 129.335938 260.488281 131.195312 254.257812 135.574219 254.257812 " fill-opacity="1" fill-rule="nonzero"/><path fill="#f1892d" d="M 173.949219 225.8125 C 195.03125 235.390625 225.554688 246.402344 254.257812 248.722656 C 256.015625 243.261719 257.261719 237.6875 257.996094 232 C 234.914062 227.6875 208.273438 185.296875 200.875 169.253906 C 198.925781 169.976562 197.019531 170.800781 195.160156 171.722656 C 193.296875 172.648438 191.488281 173.667969 189.734375 174.78125 C 187.980469 175.894531 186.289062 177.101562 184.660156 178.394531 C 183.03125 179.6875 181.476562 181.0625 179.996094 182.519531 C 178.511719 183.976562 177.109375 185.507812 175.789062 187.113281 C 174.46875 188.71875 173.238281 190.390625 172.09375 192.125 C 170.949219 193.859375 169.898438 195.652344 168.941406 197.5 C 167.988281 199.34375 167.132812 201.238281 166.375 203.171875 C 170.058594 205.40625 173.871094 207.375 175.734375 209.230469 C 180.757812 214.234375 180.664062 221.914062 173.957031 225.804688 " fill-opacity="1" fill-rule="nonzero"/><path fill="#c16825" d="M 173.949219 225.8125 C 174.542969 226.082031 175.125 226.351562 175.75 226.621094 C 177.523438 224.296875 178.648438 221.691406 179.128906 218.808594 C 178.664062 221.519531 176.980469 224.054688 173.949219 225.8125 " fill-opacity="1" fill-rule="nonzero"/><path fill="#f1892d" d="M 162.507812 229.011719 C 162.789062 232.921875 163.457031 236.765625 164.511719 240.539062 C 165.5625 244.316406 166.976562 247.949219 168.757812 251.441406 C 170.535156 254.933594 172.644531 258.214844 175.078125 261.285156 C 177.511719 264.355469 180.226562 267.15625 183.222656 269.683594 C 183.320312 269.746094 183.40625 269.820312 183.484375 269.90625 C 185.734375 271.789062 188.109375 273.492188 190.609375 275.023438 C 196.664062 273.675781 202.914062 272.109375 208.976562 270.597656 C 223.972656 266.84375 237.828125 263.378906 247.820312 263.539062 C 249.957031 259.695312 251.773438 255.703125 253.273438 251.570312 C 223.320312 248.984375 191.648438 237.238281 170.371094 227.382812 C 167.804688 228.195312 165.183594 228.734375 162.507812 228.996094 " fill-opacity="1" fill-rule="nonzero"/><path fill="#f5ab35" d="M 252.601562 253.367188 C 252.832031 252.773438 253.058594 252.1875 253.273438 251.585938 C 223.320312 249 191.648438 237.253906 170.371094 227.398438 C 169.484375 227.695312 168.558594 227.949219 167.605469 228.179688 C 188.855469 237.953125 223.089844 250.746094 252.601562 253.378906 " fill-opacity="1" fill-rule="nonzero"/><path fill="#c16825" d="M 162.507812 229.011719 C 162.789062 232.921875 163.457031 236.765625 164.511719 240.539062 C 165.5625 244.316406 166.976562 247.949219 168.757812 251.441406 C 170.535156 254.933594 172.644531 258.214844 175.078125 261.285156 C 177.511719 264.355469 180.226562 267.15625 183.222656 269.683594 C 183.320312 269.746094 183.40625 269.820312 183.484375 269.90625 C 185.734375 271.789062 188.109375 273.492188 190.609375 275.023438 C 192.773438 274.542969 194.960938 274.03125 197.152344 273.511719 C 184.652344 267.347656 161.011719 241.191406 173.722656 228.925781 C 172.582031 228.414062 171.460938 227.902344 170.371094 227.398438 C 167.804688 228.210938 165.183594 228.75 162.507812 229.011719 " fill-opacity="1" fill-rule="nonzero"/><path fill="#ffffff" d="M 201.160156 118.792969 C 202.894531 119.636719 201.613281 122.269531 199.875 121.429688 C 199.832031 121.410156 193.945312 118.480469 184.746094 116.457031 C 184.546875 116.457031 184.355469 116.414062 184.175781 116.332031 C 171.3125 113.585938 152.253906 112.722656 133.601562 123.695312 L 129.765625 126.125 C 128.179688 127.210938 126.511719 124.800781 128.121094 123.707031 C 128.644531 123.351562 129.167969 123.003906 129.6875 122.667969 C 124.476562 119.992188 119.34375 115.851562 114.191406 113.539062 C 117.222656 116.460938 119.769531 121.167969 119.289062 128.6875 C 119.21875 129.78125 117.628906 129.898438 117.628906 128.503906 C 118.527344 114.605469 104.488281 104.492188 94.273438 121.398438 C 94.058594 124.242188 93.160156 144.535156 109.167969 153.738281 C 112.074219 147.546875 115.535156 145.441406 115.566406 145.429688 C 116.71875 144.699219 118.132812 145.765625 116.503906 146.808594 C 109.976562 150.992188 108.453125 165.167969 108.222656 171.90625 C 107.621094 190.054688 105.949219 194.367188 102.617188 202.972656 C 101.085938 206.925781 99.191406 211.816406 96.863281 219.554688 C 94.847656 226.21875 93.046875 240.960938 100.34375 254.542969 C 104.621094 262.507812 112.050781 270.085938 124.433594 275.433594 C 123.835938 273.890625 123.351562 272.316406 122.984375 270.703125 C 122.621094 269.109375 124.503906 268.417969 124.945312 270.289062 C 126.121094 275.457031 130.324219 282.839844 135.59375 282.839844 C 138.269531 282.839844 140.613281 280.878906 142.417969 277.765625 C 142.476562 277.570312 142.574219 277.398438 142.707031 277.246094 C 146.515625 270.1875 147.71875 257.84375 144.234375 248.445312 L 144.117188 251.5 C 144.046875 253.425781 141.125 253.316406 141.195312 251.398438 L 141.507812 243.191406 C 140.195312 241.402344 138.65625 240.117188 136.992188 239.664062 L 136.707031 246.730469 C 136.636719 248.660156 133.710938 248.550781 133.78125 246.628906 L 134.046875 239.679688 C 131.5625 240.464844 129.667969 242.890625 128.472656 245.042969 C 127.742188 246.320312 126.042969 245.558594 126.828125 244.144531 C 131.75 235.28125 139.855469 233.382812 145.480469 244.082031 C 150.328125 253.304688 150.183594 266.785156 146.539062 275.902344 C 153.164062 274.007812 168.695312 269.851562 178.539062 269.394531 C 175.792969 266.777344 173.308594 263.929688 171.089844 260.851562 C 168.867188 257.777344 166.949219 254.523438 165.332031 251.09375 C 163.710938 247.664062 162.417969 244.113281 161.457031 240.441406 C 160.492188 236.773438 159.875 233.046875 159.597656 229.261719 C 155.710938 229.511719 151.960938 229.433594 149.109375 229.332031 C 147.1875 229.261719 147.292969 226.34375 149.210938 226.410156 C 153.523438 226.5625 172.390625 227.320312 175.660156 220.058594 C 177.226562 216.554688 175.878906 213.511719 173.671875 211.3125 C 170.792969 208.445312 161.234375 204.695312 156.8125 199.390625 C 155.589844 197.914062 157.832031 196.046875 159.0625 197.523438 C 160.46875 199.097656 162.070312 200.453125 163.855469 201.585938 C 164.472656 200.046875 165.152344 198.535156 165.890625 197.050781 C 166.628906 195.566406 167.425781 194.113281 168.28125 192.691406 C 169.136719 191.273438 170.046875 189.886719 171.011719 188.539062 C 171.980469 187.195312 172.996094 185.886719 174.066406 184.621094 C 175.140625 183.355469 176.257812 182.132812 177.425781 180.957031 C 178.597656 179.78125 179.808594 178.65625 181.070312 177.578125 C 182.328125 176.5 183.628906 175.472656 184.96875 174.496094 C 186.3125 173.523438 187.691406 172.605469 189.105469 171.742188 C 190.519531 170.878906 191.96875 170.070312 193.445312 169.324219 C 194.925781 168.578125 196.433594 167.890625 197.96875 167.261719 C 199.503906 166.636719 201.0625 166.074219 202.640625 165.570312 C 204.222656 165.070312 205.820312 164.632812 207.433594 164.257812 C 209.046875 163.882812 210.675781 163.574219 212.316406 163.332031 C 213.957031 163.089844 215.601562 162.914062 217.257812 162.800781 C 218.910156 162.691406 220.566406 162.648438 222.222656 162.667969 C 223.882812 162.691406 225.535156 162.78125 227.1875 162.933594 C 224.792969 146.003906 213.007812 131.851562 212.972656 131.808594 C 211.757812 130.332031 214.011719 128.476562 215.234375 129.953125 C 216.949219 131.878906 218.429688 133.972656 219.679688 136.226562 C 229.6875 126.175781 227.273438 109.34375 226.8125 106.679688 C 214.660156 91.9375 202.933594 102.480469 206.007812 116.925781 C 206.328125 118.441406 204.652344 118.703125 204.332031 117.210938 C 202.765625 109.886719 203.402344 105.195312 205.957031 101.867188 C 200.375 105.386719 195.121094 111.46875 189.527344 114.628906 C 196.707031 116.589844 201.121094 118.773438 201.160156 118.792969 " fill-opacity="1" fill-rule="nonzero"/><path fill="#b3b3b3" d="M 148.117188 251.304688 C 150.058594 259.496094 149.320312 268.949219 146.550781 275.902344 C 153.175781 274.007812 168.707031 269.851562 178.550781 269.394531 C 175.804688 266.777344 173.320312 263.929688 171.101562 260.851562 C 168.878906 257.777344 166.960938 254.523438 165.34375 251.09375 C 163.722656 247.664062 162.429688 244.113281 161.46875 240.441406 C 160.503906 236.773438 159.886719 233.046875 159.609375 229.261719 C 155.722656 229.511719 151.972656 229.433594 149.121094 229.332031 C 147.199219 229.261719 147.304688 226.34375 149.222656 226.410156 C 153.535156 226.5625 172.402344 227.320312 175.671875 220.058594 C 169.667969 223.839844 159.148438 222.804688 151.460938 221.316406 C 146.617188 220.371094 139.355469 217.785156 138.71875 223.832031 C 137.863281 231.917969 153.371094 242.394531 153.941406 243.308594 C 157.375 248.84375 148.132812 251.304688 148.132812 251.304688 Z M 148.117188 251.304688 " fill-opacity="1" fill-rule="nonzero"/><path fill="#b3b3b3" d="M 190.394531 158.769531 C 190.394531 158.769531 188.25 162.71875 184.589844 163.054688 C 184.199219 168.496094 175.964844 169.628906 174.085938 164.128906 C 174.085938 164.128906 169.265625 164.292969 167.058594 160.941406 L 169.292969 160.742188 L 171.984375 161.886719 L 173.492188 162.003906 L 175.546875 161.027344 L 177.308594 159.59375 L 178.265625 157.472656 L 179.480469 159.714844 C 180.117188 160.074219 180.773438 160.398438 181.441406 160.691406 C 182.230469 160.886719 183.023438 161.03125 183.828125 161.121094 C 183.976562 161.121094 185.976562 161.050781 185.976562 161.050781 L 188.296875 159.832031 L 189.863281 158.582031 Z M 190.394531 158.769531 " fill-opacity="1" fill-rule="nonzero"/><path fill="#b3b3b3" d="M 155.339844 115.648438 C 147.613281 117.023438 140.367188 119.707031 133.605469 123.695312 L 129.769531 126.125 C 128.179688 127.210938 126.511719 124.800781 128.121094 123.707031 C 128.644531 123.351562 129.167969 123.003906 129.6875 122.667969 C 124.476562 119.992188 119.34375 115.851562 114.191406 113.539062 C 117.222656 116.460938 119.769531 121.167969 119.289062 128.6875 C 119.21875 129.78125 117.628906 129.898438 117.628906 128.503906 C 118.527344 114.605469 104.488281 104.492188 94.273438 121.398438 C 94.058594 124.242188 93.160156 144.535156 109.167969 153.738281 C 112.074219 147.546875 115.535156 145.441406 115.566406 145.429688 C 116.71875 144.699219 118.132812 145.765625 116.503906 146.808594 C 109.976562 150.992188 108.453125 165.167969 108.222656 171.90625 C 107.621094 190.054688 105.949219 194.367188 102.617188 202.972656 C 101.085938 206.925781 99.191406 211.816406 96.863281 219.554688 C 94.847656 226.21875 93.046875 240.960938 100.34375 254.542969 C 104.621094 262.507812 112.050781 270.085938 124.433594 275.433594 C 123.835938 273.890625 123.351562 272.316406 122.984375 270.703125 C 122.621094 269.109375 124.503906 268.417969 124.945312 270.289062 C 126.121094 275.457031 130.324219 282.839844 135.59375 282.839844 C 138.269531 282.839844 140.613281 280.878906 142.417969 277.765625 C 142.476562 277.570312 142.574219 277.398438 142.707031 277.246094 C 143.070312 276.578125 143.394531 275.890625 143.683594 275.183594 C 132.816406 285.90625 127.976562 273.984375 127.609375 264.386719 C 126.851562 244.015625 134.054688 239.679688 134.054688 239.679688 C 131.570312 240.464844 129.675781 242.890625 128.480469 245.042969 C 127.75 246.320312 126.050781 245.558594 126.835938 244.144531 C 107.292969 254.019531 100.441406 232.726562 106.660156 216.347656 C 112.933594 199.828125 115.480469 190.011719 117.605469 171.867188 C 122.558594 129.46875 155.339844 115.648438 155.339844 115.648438 " fill-opacity="1" fill-rule="nonzero"/><path fill="#f5ab35" d="M 95.886719 223.660156 C 94.5 231.253906 94.320312 243.289062 100.34375 254.539062 C 104.222656 261.753906 110.683594 268.65625 121.078125 273.863281 C 121.863281 273.441406 122.59375 272.574219 123.167969 271.484375 C 123.101562 271.21875 123.039062 270.960938 122.980469 270.699219 C 122.746094 269.671875 123.449219 269.015625 124.089844 269.1875 C 124.957031 266.28125 124.957031 262.949219 123.515625 261.738281 C 121.03125 259.636719 120.558594 252.855469 121.988281 246.835938 C 123.308594 241.269531 120.90625 236.296875 119.027344 231.074219 C 118.171875 228.6875 115.6875 227.449219 112.363281 226.398438 C 109.039062 225.347656 107.113281 225.535156 104.347656 222.292969 C 101.578125 219.046875 95.90625 223.65625 95.90625 223.65625 Z M 95.886719 223.660156 " fill-opacity="1" fill-rule="nonzero"/><path fill="#f1892d" d="M 95.886719 223.660156 C 94.5 231.253906 94.320312 243.289062 100.34375 254.539062 C 104.222656 261.753906 110.683594 268.65625 121.078125 273.863281 C 121.863281 273.441406 122.59375 272.574219 123.167969 271.484375 C 123.101562 271.21875 123.039062 270.960938 122.980469 270.699219 C 122.746094 269.671875 123.449219 269.015625 124.089844 269.1875 C 124.957031 266.28125 124.957031 262.949219 123.515625 261.738281 C 121.03125 259.636719 120.558594 252.855469 121.988281 246.835938 C 122.054688 246.554688 122.113281 246.269531 122.160156 245.992188 C 108.488281 249.828125 102.667969 236.308594 104.882812 222.914062 C 104.703125 222.722656 104.515625 222.523438 104.328125 222.296875 C 101.558594 219.046875 95.886719 223.660156 95.886719 223.660156 Z M 95.886719 223.660156 " fill-opacity="1" fill-rule="nonzero"/><path fill="#f75c4c" d="M 219.679688 136.207031 C 229.6875 126.15625 227.273438 109.324219 226.8125 106.660156 C 214.726562 92.003906 203.074219 102.347656 205.960938 116.65625 C 207.527344 123.980469 212.414062 126.242188 216.21875 131.207031 C 217.445312 132.804688 218.601562 134.523438 219.679688 136.207031 " fill-opacity="1" fill-rule="evenodd"/><path fill="#f5ab35" d="M 155.339844 115.648438 C 147.613281 117.023438 140.367188 119.707031 133.605469 123.695312 L 129.769531 126.125 C 128.179688 127.210938 126.511719 124.800781 128.121094 123.707031 C 128.644531 123.351562 129.167969 123.003906 129.6875 122.667969 C 124.476562 119.992188 119.34375 115.851562 114.191406 113.539062 C 117.222656 116.460938 119.769531 121.167969 119.289062 128.6875 C 119.21875 129.78125 117.628906 129.898438 117.628906 128.503906 C 118.527344 114.605469 104.488281 104.492188 94.273438 121.398438 C 94.058594 124.242188 93.160156 144.535156 109.167969 153.738281 C 112.074219 147.546875 115.535156 145.441406 115.566406 145.429688 C 116.71875 144.699219 118.132812 145.765625 116.503906 146.808594 C 109.976562 150.992188 108.453125 165.167969 108.222656 171.90625 C 108.101562 175.625 107.933594 178.761719 107.714844 181.472656 C 152.972656 201.992188 183.109375 154.320312 155.980469 116.667969 Z M 155.339844 115.648438 " fill-opacity="1" fill-rule="nonzero"/><path fill="#f1892d" d="M 155.339844 115.648438 C 146.09375 117.304688 138.351562 120.488281 129.769531 126.125 C 128.179688 127.210938 126.511719 124.800781 128.121094 123.707031 C 128.644531 123.351562 129.167969 123.003906 129.6875 122.667969 C 124.476562 119.992188 119.34375 115.851562 114.191406 113.539062 C 117.222656 116.460938 119.769531 121.167969 119.289062 128.6875 C 119.21875 129.78125 117.628906 129.898438 117.628906 128.503906 C 118.527344 114.605469 104.488281 104.492188 94.273438 121.398438 C 94.058594 124.242188 93.160156 144.535156 109.167969 153.738281 C 112.074219 147.546875 115.535156 145.441406 115.566406 145.429688 C 116.71875 144.699219 118.132812 145.765625 116.503906 146.808594 C 109.976562 150.992188 108.453125 165.167969 108.222656 171.90625 C 108.101562 175.625 107.933594 178.761719 107.714844 181.472656 C 110.34375 182.667969 113.042969 183.671875 115.8125 184.480469 C 116.472656 180.65625 117.050781 176.542969 117.59375 171.871094 C 122.558594 129.46875 155.339844 115.648438 155.339844 115.648438 " fill-opacity="1" fill-rule="nonzero"/><path fill="#ff7c6c" d="M 117.660156 127.546875 C 117.886719 114.148438 103.601562 109.160156 96.859375 121.46875 C 95.488281 123.96875 93.160156 144.519531 109.164062 153.738281 C 109.910156 152.128906 110.808594 150.613281 111.855469 149.179688 C 112.015625 148.960938 112.175781 148.753906 112.332031 148.558594 C 116.734375 142.578125 117.550781 134.722656 117.660156 127.546875 " fill-opacity="1" fill-rule="nonzero"/><path fill="#400128" d="M 183.324219 162.128906 C 182.710938 166.765625 176.878906 168.011719 174.992188 162.828125 C 173.101562 163.472656 170.507812 163.253906 167.058594 160.941406 C 166.058594 160.269531 167.078125 158.753906 168.074219 159.425781 C 173.320312 162.953125 175.988281 160.46875 177.089844 158.792969 C 172.214844 158.207031 172.613281 152.824219 178.246094 152.304688 C 183.949219 151.773438 185.304688 157.246094 180.226562 158.578125 C 181.628906 160.011719 185.277344 162.429688 189.71875 158.0625 C 190.230469 157.558594 190.855469 158.335938 190.410156 158.777344 C 187.664062 161.523438 185.261719 162.28125 183.351562 162.136719 " fill-opacity="1" fill-rule="nonzero"/><path fill="#400128" d="M 145.570312 137.742188 C 155.589844 136.511719 162.53125 153.011719 157.03125 163.859375 C 151.398438 174.960938 138.09375 169.742188 136.300781 155.136719 C 135.394531 147.761719 138.347656 138.632812 145.570312 137.742188 " fill-opacity="1" fill-rule="nonzero"/><path fill="#400128" d="M 200.84375 137.964844 C 208.753906 136.992188 214.175781 149.8125 209.890625 158.265625 C 205.484375 166.949219 194.933594 163.035156 193.507812 151.539062 C 192.792969 145.761719 195.15625 138.664062 200.84375 137.964844 " fill-opacity="1" fill-rule="nonzero"/><path fill="#400128" d="M 178.707031 159.640625 C 178.179688 160.535156 177.511719 161.300781 176.695312 161.9375 C 177.554688 165.46875 181.25 164.941406 181.546875 161.707031 C 180.449219 161.230469 179.507812 160.542969 178.726562 159.640625 " fill-opacity="1" fill-rule="nonzero"/><path fill="#400128" d="M 178.304688 157.023438 L 178.648438 156.996094 C 180.441406 156.808594 182.175781 155.933594 181.324219 154.898438 C 179.757812 152.988281 174.410156 154.761719 175.699219 156.316406 C 176.171875 156.886719 177.222656 157.097656 178.304688 157.023438 " fill-opacity="1" fill-rule="nonzero"/><path fill="#ffffff" d="M 178.683594 153.09375 C 179.726562 153.042969 180.574219 153.21875 180.589844 153.488281 C 180.605469 153.753906 179.769531 154.011719 178.730469 154.058594 C 177.691406 154.105469 176.835938 153.933594 176.824219 153.667969 C 176.8125 153.402344 177.644531 153.144531 178.683594 153.09375 " fill-opacity="1" fill-rule="evenodd"/><path fill="#400128" d="M 152.085938 143.582031 C 145.699219 136.210938 137.832031 143.582031 139.210938 154.792969 C 140.589844 166.003906 150.007812 171.261719 154.417969 162.550781 C 157.265625 156.933594 156.210938 148.339844 152.066406 143.582031 " fill-opacity="1" fill-rule="nonzero"/><path fill="#400128" d="M 205.558594 142.964844 C 200.925781 137.625 195.417969 143.097656 196.421875 151.226562 C 197.414062 159.222656 204.070312 163.265625 207.273438 156.949219 C 209.363281 152.828125 208.582031 146.457031 205.558594 142.964844 " fill-opacity="1" fill-rule="nonzero"/><path fill="#ffffff" d="M 150.21875 149.578125 C 150.59375 149.578125 150.964844 149.613281 151.332031 149.6875 C 151.699219 149.761719 152.058594 149.867188 152.402344 150.011719 C 152.75 150.15625 153.078125 150.332031 153.390625 150.539062 C 153.699219 150.746094 153.988281 150.984375 154.253906 151.25 C 154.519531 151.511719 154.753906 151.800781 154.964844 152.113281 C 155.171875 152.425781 155.347656 152.753906 155.488281 153.101562 C 155.632812 153.445312 155.742188 153.800781 155.816406 154.171875 C 155.886719 154.539062 155.925781 154.910156 155.925781 155.28125 C 155.925781 155.65625 155.886719 156.027344 155.816406 156.394531 C 155.742188 156.765625 155.632812 157.121094 155.488281 157.464844 C 155.347656 157.8125 155.171875 158.140625 154.964844 158.453125 C 154.753906 158.765625 154.519531 159.054688 154.253906 159.316406 C 153.988281 159.582031 153.699219 159.820312 153.390625 160.027344 C 153.078125 160.234375 152.75 160.410156 152.402344 160.554688 C 152.058594 160.699219 151.699219 160.804688 151.332031 160.878906 C 150.964844 160.953125 150.59375 160.988281 150.21875 160.988281 C 149.84375 160.988281 149.472656 160.953125 149.105469 160.878906 C 148.738281 160.804688 148.382812 160.699219 148.039062 160.554688 C 147.691406 160.410156 147.363281 160.234375 147.050781 160.027344 C 146.738281 159.820312 146.453125 159.582031 146.1875 159.316406 C 145.921875 159.054688 145.683594 158.765625 145.476562 158.453125 C 145.269531 158.140625 145.09375 157.8125 144.949219 157.464844 C 144.808594 157.121094 144.699219 156.765625 144.625 156.394531 C 144.550781 156.027344 144.515625 155.65625 144.515625 155.28125 C 144.515625 154.910156 144.550781 154.539062 144.625 154.171875 C 144.699219 153.800781 144.808594 153.445312 144.949219 153.101562 C 145.09375 152.753906 145.269531 152.425781 145.476562 152.113281 C 145.683594 151.800781 145.921875 151.511719 146.1875 151.25 C 146.453125 150.984375 146.738281 150.746094 147.050781 150.539062 C 147.363281 150.332031 147.691406 150.15625 148.039062 150.011719 C 148.382812 149.867188 148.738281 149.761719 149.105469 149.6875 C 149.472656 149.613281 149.84375 149.578125 150.21875 149.578125 " fill-opacity="1" fill-rule="evenodd"/><path fill="#ffffff" d="M 142.585938 146.023438 C 142.816406 146.023438 143.035156 146.070312 143.242188 146.15625 C 143.453125 146.242188 143.640625 146.367188 143.800781 146.53125 C 143.960938 146.691406 144.082031 146.875 144.171875 147.085938 C 144.257812 147.296875 144.300781 147.515625 144.300781 147.746094 C 144.300781 147.972656 144.257812 148.191406 144.167969 148.402344 C 144.082031 148.613281 143.957031 148.796875 143.796875 148.957031 C 143.636719 149.117188 143.449219 149.242188 143.238281 149.328125 C 143.027344 149.417969 142.808594 149.460938 142.582031 149.460938 C 142.355469 149.460938 142.136719 149.414062 141.925781 149.328125 C 141.714844 149.242188 141.527344 149.117188 141.367188 148.957031 C 141.207031 148.796875 141.082031 148.609375 140.996094 148.398438 C 140.910156 148.1875 140.867188 147.96875 140.867188 147.742188 C 140.867188 147.515625 140.910156 147.292969 140.996094 147.082031 C 141.085938 146.875 141.207031 146.6875 141.371094 146.527344 C 141.53125 146.363281 141.71875 146.242188 141.929688 146.152344 C 142.140625 146.066406 142.359375 146.023438 142.585938 146.023438 " fill-opacity="1" fill-rule="evenodd"/><path fill="#ffffff" d="M 202.984375 148.242188 C 203.277344 148.242188 203.5625 148.273438 203.847656 148.328125 C 204.132812 148.386719 204.410156 148.46875 204.679688 148.582031 C 204.949219 148.691406 205.203125 148.828125 205.445312 148.988281 C 205.6875 149.152344 205.910156 149.335938 206.113281 149.539062 C 206.320312 149.746094 206.503906 149.96875 206.664062 150.210938 C 206.828125 150.453125 206.964844 150.707031 207.074219 150.976562 C 207.1875 151.246094 207.269531 151.523438 207.328125 151.808594 C 207.382812 152.09375 207.410156 152.378906 207.410156 152.671875 C 207.410156 152.960938 207.382812 153.25 207.328125 153.535156 C 207.269531 153.820312 207.1875 154.097656 207.074219 154.367188 C 206.964844 154.632812 206.828125 154.890625 206.664062 155.132812 C 206.503906 155.371094 206.320312 155.597656 206.113281 155.800781 C 205.910156 156.007812 205.6875 156.191406 205.445312 156.351562 C 205.203125 156.515625 204.949219 156.652344 204.679688 156.761719 C 204.410156 156.875 204.132812 156.957031 203.847656 157.015625 C 203.5625 157.070312 203.277344 157.097656 202.984375 157.097656 C 202.695312 157.097656 202.40625 157.070312 202.121094 157.015625 C 201.835938 156.957031 201.558594 156.875 201.292969 156.761719 C 201.023438 156.652344 200.769531 156.515625 200.527344 156.351562 C 200.285156 156.191406 200.0625 156.007812 199.855469 155.800781 C 199.648438 155.597656 199.464844 155.371094 199.304688 155.132812 C 199.144531 154.890625 199.007812 154.632812 198.894531 154.367188 C 198.785156 154.097656 198.699219 153.820312 198.644531 153.535156 C 198.585938 153.25 198.558594 152.960938 198.558594 152.671875 C 198.558594 152.378906 198.585938 152.09375 198.644531 151.808594 C 198.699219 151.523438 198.785156 151.246094 198.894531 150.976562 C 199.007812 150.707031 199.144531 150.453125 199.304688 150.210938 C 199.464844 149.96875 199.648438 149.746094 199.855469 149.539062 C 200.0625 149.335938 200.285156 149.152344 200.527344 148.988281 C 200.769531 148.828125 201.023438 148.691406 201.292969 148.582031 C 201.558594 148.46875 201.835938 148.386719 202.121094 148.328125 C 202.40625 148.273438 202.695312 148.242188 202.984375 148.242188 " fill-opacity="1" fill-rule="evenodd"/><path fill="#ffffff" d="M 205.9375 142.839844 C 206.164062 142.839844 206.386719 142.882812 206.597656 142.96875 C 206.808594 143.058594 206.996094 143.179688 207.15625 143.34375 C 207.316406 143.503906 207.441406 143.691406 207.53125 143.902344 C 207.617188 144.113281 207.660156 144.332031 207.664062 144.558594 C 207.664062 144.789062 207.617188 145.007812 207.53125 145.21875 C 207.445312 145.429688 207.320312 145.617188 207.15625 145.777344 C 206.996094 145.941406 206.808594 146.066406 206.597656 146.152344 C 206.386719 146.238281 206.167969 146.285156 205.941406 146.28125 C 205.710938 146.28125 205.492188 146.238281 205.28125 146.152344 C 205.070312 146.0625 204.882812 145.9375 204.722656 145.777344 C 204.5625 145.617188 204.4375 145.429688 204.351562 145.21875 C 204.261719 145.007812 204.21875 144.785156 204.21875 144.558594 C 204.21875 144.328125 204.265625 144.109375 204.351562 143.902344 C 204.4375 143.691406 204.5625 143.503906 204.722656 143.34375 C 204.886719 143.183594 205.070312 143.058594 205.28125 142.972656 C 205.492188 142.882812 205.710938 142.839844 205.9375 142.839844 " fill-opacity="1" fill-rule="evenodd"/><path fill="#b3b3b3" d="M 227.1875 162.933594 C 199.851562 158.304688 171.628906 172.46875 158.9375 197.390625 C 158.984375 197.429688 159.023438 197.472656 159.0625 197.523438 C 160.46875 199.097656 162.070312 200.453125 163.855469 201.585938 C 164.472656 200.046875 165.152344 198.535156 165.890625 197.050781 C 166.628906 195.566406 167.425781 194.113281 168.28125 192.691406 C 169.136719 191.273438 170.046875 189.886719 171.011719 188.539062 C 171.980469 187.195312 172.996094 185.886719 174.066406 184.621094 C 175.140625 183.355469 176.257812 182.132812 177.425781 180.957031 C 178.597656 179.78125 179.808594 178.65625 181.070312 177.578125 C 182.328125 176.5 183.628906 175.472656 184.96875 174.496094 C 186.3125 173.523438 187.691406 172.605469 189.105469 171.742188 C 190.519531 170.878906 191.96875 170.070312 193.445312 169.324219 C 194.925781 168.578125 196.433594 167.890625 197.96875 167.261719 C 199.503906 166.636719 201.0625 166.074219 202.640625 165.570312 C 204.222656 165.070312 205.820312 164.632812 207.433594 164.257812 C 209.046875 163.882812 210.675781 163.574219 212.316406 163.332031 C 213.957031 163.089844 215.601562 162.914062 217.257812 162.800781 C 218.910156 162.691406 220.566406 162.648438 222.222656 162.667969 C 223.882812 162.691406 225.535156 162.78125 227.1875 162.933594 " fill-opacity="1" fill-rule="nonzero"/><path fill="#f5ab35" d="M 201.832031 171.261719 C 201.488281 170.5625 201.167969 169.890625 200.875 169.261719 C 196.882812 170.75 193.09375 172.644531 189.507812 174.945312 C 193.457031 173.46875 197.488281 172.261719 201.597656 171.324219 C 209.09375 189.753906 235.605469 229.453125 257.660156 234.347656 C 257.78125 233.5625 257.894531 232.777344 257.992188 231.992188 C 235.816406 227.851562 210.347656 188.558594 201.832031 171.261719 Z M 201.832031 171.261719 " fill-opacity="1" fill-rule="evenodd"/><path fill="#f5ab35" d="M 245.371094 267.640625 C 245.632812 267.246094 245.886719 266.824219 246.136719 266.414062 C 233.4375 266.738281 210.441406 273.472656 194.40625 277.160156 C 194.953125 277.441406 195.503906 277.714844 196.0625 277.976562 C 211.648438 274.292969 232.957031 268.171875 245.371094 267.640625 " fill-opacity="1" fill-rule="nonzero"/><path fill="#d73c2c" d="M 109.164062 153.738281 C 103.285156 148.703125 99.003906 140.828125 98.785156 132.863281 C 98.339844 116.664062 114.140625 110.683594 117.660156 127.546875 C 117.886719 114.148438 104.25 104.886719 94.273438 121.398438 C 94.058594 124.242188 93.160156 144.535156 109.167969 153.738281 " fill-opacity="1" fill-rule="evenodd"/><path fill="#c72c1c" d="M 218.5625 100.199219 C 210.058594 97.0625 203.75 105.691406 205.960938 116.671875 C 208.605469 103.867188 222.035156 102.105469 227.371094 115.757812 C 227.480469 112.710938 227.296875 109.683594 226.8125 106.675781 C 223.980469 103.234375 221.164062 101.183594 218.582031 100.214844 " fill-opacity="1" fill-rule="evenodd"/></svg>